<svg width="76" height="61" viewBox="0 0 76 61" fill="none" xmlns="http://www.w3.org/2000/svg">
<g id="Card icon">
<g id="Group 91">
<path id="Vector (Stroke)" fill-rule="evenodd" clip-rule="evenodd" d="M0.820312 2.6875C0.820312 1.23775 2.1118 0.0625 3.70493 0.0625H72.9357C74.5288 0.0625 75.8203 1.23775 75.8203 2.6875V18.4375C75.8203 19.8872 74.5288 21.0625 72.9357 21.0625C71.3426 21.0625 70.0511 19.8872 70.0511 18.4375V5.31251H6.58955V18.4375C6.58955 19.8872 5.29806 21.0625 3.70493 21.0625C2.1118 21.0625 0.820312 19.8872 0.820312 18.4375V2.6875Z" fill="#4D4D4D"/>
<path id="Vector (Stroke)_2" fill-rule="evenodd" clip-rule="evenodd" d="M0.820312 18.023C0.820312 16.388 2.1118 15.0625 3.70493 15.0625H72.9357C74.5288 15.0625 75.8203 16.388 75.8203 18.023V57.102C75.8203 58.737 74.5288 60.0625 72.9357 60.0625H3.70493C2.1118 60.0625 0.820312 58.737 0.820312 57.102V18.023ZM6.58955 20.9836V54.1414H70.0511V20.9836H6.58955Z" fill="#4D4D4D"/>
<path id="Subtract" fill-rule="evenodd" clip-rule="evenodd" d="M3.82031 18.0625H72.8203V57.0625H3.82031V18.0625ZM15.6328 37.0625C14.0795 37.0625 12.8203 37.9579 12.8203 39.0625C12.8203 40.1671 14.0795 41.0625 15.6328 41.0625H19.0078C20.5611 41.0625 21.8203 40.1671 21.8203 39.0625C21.8203 37.9579 20.5611 37.0625 19.0078 37.0625H15.6328ZM26.8203 39.0625C26.8203 37.9579 28.0795 37.0625 29.6328 37.0625H33.0078C34.5611 37.0625 35.8203 37.9579 35.8203 39.0625C35.8203 40.1671 34.5611 41.0625 33.0078 41.0625H29.6328C28.0795 41.0625 26.8203 40.1671 26.8203 39.0625ZM43.6328 37.0625C42.0795 37.0625 40.8203 37.9579 40.8203 39.0625C40.8203 40.1671 42.0795 41.0625 43.6328 41.0625H47.0078C48.5611 41.0625 49.8203 40.1671 49.8203 39.0625C49.8203 37.9579 48.5611 37.0625 47.0078 37.0625H43.6328Z" fill="#4D4D4D"/>
</g>
</g>
</svg>
