<svg width="160" height="160" viewBox="0 0 160 160" fill="none" xmlns="http://www.w3.org/2000/svg">
<path id="Vector (Stroke)" fill-rule="evenodd" clip-rule="evenodd" d="M45.8539 2.06598C46.7115 1.20837 47.8747 0.726562 49.0876 0.726562H110.912C112.125 0.726562 113.288 1.20836 114.145 2.06597L157.9 45.8207C158.758 46.6783 159.24 47.8415 159.24 49.0544V110.878C159.24 112.091 158.758 113.255 157.9 114.112L114.145 157.867C113.288 158.725 112.125 159.207 110.912 159.207H49.0876C47.8747 159.207 46.7115 158.725 45.8539 157.867L2.09918 114.112C1.24157 113.254 0.759766 112.091 0.759766 110.878V49.0544C0.759766 47.8415 1.24157 46.6783 2.09919 45.8207L45.8539 2.06598ZM50.9818 9.87271L9.90591 50.9486V108.984L50.9818 150.06H109.017L150.094 108.984V50.9486L109.017 9.87271H50.9818ZM54.3659 54.3327C56.1518 52.5468 59.0473 52.5468 60.8332 54.3327L79.9996 73.4991L99.166 54.3327C100.952 52.5468 103.847 52.5468 105.633 54.3327C107.419 56.1186 107.419 59.0141 105.633 60.8L86.4669 79.9664L105.633 99.1328C107.419 100.919 107.419 103.814 105.633 105.6C103.847 107.386 100.952 107.386 99.166 105.6L79.9996 86.4337L60.8332 105.6C59.0473 107.386 56.1518 107.386 54.3659 105.6C52.58 103.814 52.58 100.919 54.3659 99.1328L73.5323 79.9664L54.3659 60.8C52.58 59.0141 52.58 56.1186 54.3659 54.3327Z" fill="#F42200"/>
</svg>
