<svg width="92" height="112" viewBox="0 0 92 112" fill="none" xmlns="http://www.w3.org/2000/svg">
<path fill-rule="evenodd" clip-rule="evenodd" d="M1.71357 0.599238C2.46795 0.135045 3.40996 0.0928457 4.20316 0.487712L13.2941 5.01328L22.3851 0.487712C23.1054 0.1291 23.9534 0.1291 24.6738 0.487712L33.7647 5.01329L42.8557 0.487712C43.576 0.1291 44.424 0.1291 45.1443 0.487712L54.2353 5.01328L63.3262 0.487712C64.0466 0.1291 64.8945 0.1291 65.6149 0.487712L74.7059 5.01328L83.7968 0.487712C84.59 0.0928457 85.5321 0.135045 86.2864 0.599238C87.0408 1.06343 87.5 1.88342 87.5 2.76637V104.671C87.5 105.554 87.0408 106.374 86.2864 106.838C85.5321 107.302 84.59 107.345 83.7968 106.95L74.7059 102.424L65.6149 106.95C64.8945 107.308 64.0466 107.308 63.3262 106.95L54.2353 102.424L45.1443 106.95C44.424 107.308 43.576 107.308 42.8557 106.95L33.7647 102.424L24.6738 106.95C23.9534 107.308 23.1054 107.308 22.3851 106.95L13.2941 102.424L4.20316 106.95C3.40996 107.345 2.46795 107.302 1.71357 106.838C0.959187 106.374 0.5 105.554 0.5 104.671V2.76637C0.5 1.88342 0.959187 1.06343 1.71357 0.599238ZM5.61765 6.88851V100.549L12.1498 97.2972C12.8702 96.9386 13.7181 96.9386 14.4385 97.2972L23.5294 101.823L32.6204 97.2972C33.3407 96.9386 34.1887 96.9386 34.909 97.2972L44 101.823L53.091 97.2972C53.8113 96.9386 54.6593 96.9386 55.3796 97.2972L64.4706 101.823L73.5615 97.2972C74.2819 96.9386 75.1298 96.9386 75.8502 97.2972L82.3824 100.549V6.8885L75.8502 10.1403C75.1298 10.4989 74.2819 10.4989 73.5615 10.1403L64.4706 5.6147L55.3796 10.1403C54.6593 10.4989 53.8113 10.4989 53.091 10.1403L44 5.6147L34.909 10.1403C34.1887 10.4989 33.3407 10.4989 32.6204 10.1403L23.5294 5.6147L14.4385 10.1403C13.7181 10.4989 12.8702 10.4989 12.1498 10.1403L5.61765 6.88851Z" fill="#4D4D4D"/>
<path fill-rule="evenodd" clip-rule="evenodd" d="M20.5 32.7188C20.5 31.338 21.6513 30.2188 23.0714 30.2188H53.9286C55.3487 30.2188 56.5 31.338 56.5 32.7188C56.5 34.0995 55.3487 35.2188 53.9286 35.2188H23.0714C21.6513 35.2188 20.5 34.0995 20.5 32.7188Z" fill="#4D4D4D"/>
<path fill-rule="evenodd" clip-rule="evenodd" d="M20.5 53.7188C20.5 52.338 21.669 51.2188 23.1111 51.2188H64.8889C66.331 51.2188 67.5 52.338 67.5 53.7188C67.5 55.0995 66.331 56.2188 64.8889 56.2188H23.1111C21.669 56.2188 20.5 55.0995 20.5 53.7188Z" fill="#4D4D4D"/>
<path fill-rule="evenodd" clip-rule="evenodd" d="M20.5 73.7188C20.5 72.338 21.6566 71.2188 23.0833 71.2188H48.9167C50.3434 71.2188 51.5 72.338 51.5 73.7188C51.5 75.0995 50.3434 76.2188 48.9167 76.2188H23.0833C21.6566 76.2188 20.5 75.0995 20.5 73.7188Z" fill="#4D4D4D"/>
<g clip-path="url(#clip0_1940_8189)">
<path d="M91.5 101.219C91.5 106.742 87.0228 111.219 81.5 111.219C75.9772 111.219 71.5 106.742 71.5 101.219C71.5 95.6959 75.9772 91.2188 81.5 91.2188C87.0228 91.2188 91.5 95.6959 91.5 101.219Z" fill="#F2F2F2"/>
<path fill-rule="evenodd" clip-rule="evenodd" d="M81.5 111.219C75.9772 111.219 71.5 106.742 71.5 101.219C71.5 95.6959 75.9772 91.2188 81.5 91.2188C87.0228 91.2188 91.5 95.6959 91.5 101.219C91.5 106.742 87.0228 111.219 81.5 111.219ZM85.3541 97.4628L80.25 102.576L78.0089 100.335C77.5207 99.8467 76.7293 99.8467 76.2411 100.335C75.753 100.823 75.753 101.614 76.2411 102.103L79.3661 105.228C79.8543 105.716 80.6457 105.716 81.1339 105.228L87.1219 99.2305C87.61 98.7424 87.61 97.9509 87.1219 97.4628C86.6337 96.9746 85.8422 96.9746 85.3541 97.4628Z" fill="#24B47E"/>
</g>
<defs>
<clipPath id="clip0_1940_8189">
<rect width="20" height="20" fill="white" transform="translate(71.5 91.2188)"/>
</clipPath>
</defs>
</svg>
