<svg width="86" height="86" viewBox="0 0 86 86" fill="none" xmlns="http://www.w3.org/2000/svg">
<g id="Group">
<path id="Vector" d="M50.8222 85.5232C50.3105 85.5232 49.7988 85.377 49.2871 85.1577L13.3937 73.5344C11.6392 72.9496 10.6889 71.0489 11.2006 69.2945C11.7123 67.54 13.6861 66.5897 15.4405 67.1014L40.5148 75.2158L21.5812 52.8464C20.8501 52.0422 20.6308 50.9457 20.8501 49.8491C21.1425 48.8257 21.8736 47.9485 22.8239 47.5099L59.6677 32.5969L35.6169 6.06064C34.5934 4.891 34.4472 3.13653 35.3976 1.82069C36.3479 0.504837 38.0293 0.066222 39.4913 0.724146L79.0399 17.9033C80.0633 18.3419 80.7943 19.2191 81.0136 20.3157C81.2329 21.4122 80.9405 22.5087 80.1364 23.3129L69.7558 34.2783L84.815 55.6243C85.8384 57.0863 85.546 59.1332 84.1571 60.2297L52.8691 84.7922C52.2843 85.2308 51.5533 85.5232 50.8222 85.5232ZM29.7687 52.1153L49.4333 75.2889L60.2525 39.8341L29.7687 52.1884V52.1153ZM66.6855 41.5885L57.1091 72.9496L77.4316 56.9401L66.6124 41.5885H66.6855ZM51.1877 13.1516L65.5159 29.0149L71.9489 22.2163L51.1146 13.1516H51.1877Z" fill="#808080"/>
<path id="Vector_2" d="M14.491 73.68C14.491 73.68 14.2717 73.68 14.1986 73.68C12.8096 73.5338 11.64 72.6566 11.2745 71.3408L0.674599 36.5439C0.309085 35.3011 0.674598 33.9853 1.62493 33.1081L35.9832 1.3815C37.0797 0.358064 38.7611 0.211859 40.0769 1.01599C41.3928 1.82012 41.9776 3.35527 41.539 4.81733L27.5033 51.6761C27.5033 51.6761 27.3571 52.0417 27.284 52.1879L17.5613 71.7794C16.9765 72.949 15.8069 73.68 14.5641 73.68H14.491ZM7.69245 36.5439L15.222 61.2526L21.0702 49.4831L31.5239 14.6131L7.69245 36.5439Z" fill="#808080"/>
<path id="Vector_3" d="M24.14 54.0898C23.409 54.0898 22.751 53.8705 22.0931 53.4318L1.77057 38.2265C0.308518 37.1299 0.0161079 35.01 1.11265 33.5479C2.20919 32.0859 4.32916 31.7935 5.79122 32.89L26.1138 48.0953C27.5758 49.1919 27.8682 51.3119 26.7717 52.7739C26.1138 53.6512 25.0903 54.0898 24.0669 54.0898H24.14Z" fill="#808080"/>
<path id="Vector_4" d="M82.1098 60.9603C80.4285 60.9603 78.9664 59.7176 78.7471 57.9631L74.434 21.4118C74.2147 19.5842 75.5306 17.9028 77.3581 17.6835C79.1857 17.3911 80.8671 18.7801 81.0864 20.6076L85.3994 57.159C85.6188 58.9865 84.3029 60.6679 82.4753 60.8872C82.3291 60.8872 82.1829 60.8872 82.1098 60.8872V60.9603Z" fill="#808080"/>
</g>
</svg>
