<svg width="168" height="196" viewBox="0 0 168 196" fill="none" xmlns="http://www.w3.org/2000/svg">
<path d="M121.819 173.696L94.02 157.368V115.653L129.554 136.51L129.561 169.153L167.385 146.95V102.546L139.576 118.861L104.037 98.0024L139.576 77.1435L167.385 93.4567L167.382 49.0547L129.559 26.8516L129.554 59.4954L94.02 80.3519V38.6364L121.819 22.3089L83.9986 0.107666L46.1724 22.3083L73.9765 38.6358L73.9741 80.3556L38.4379 59.4941L38.4306 26.8504L0.606923 49.0554V93.4598L28.4159 77.1441L63.9496 98.0031L28.4159 118.862L0.604492 102.546L0.606923 146.95L38.4306 169.151L38.4379 136.51L73.9741 115.648L73.9765 157.368L46.1724 173.695L83.9986 195.896L121.82 173.695L121.819 173.696ZM157.363 141.067L139.587 151.503V130.634L157.363 120.199V141.067ZM139.588 65.3711L139.586 44.5028L157.361 54.9385L157.363 75.8043L139.588 65.3711ZM66.2183 22.3065L83.9986 11.8733L101.774 22.3065L83.9986 32.7397L66.2183 22.3065ZM10.629 54.9379L28.4043 44.5022V65.3704L10.629 75.8061V54.9379ZM28.4043 130.634V151.5L10.629 141.066L10.6265 120.198L28.4043 130.634ZM66.2183 173.698L83.9986 163.265L101.774 173.698L83.9986 184.132L66.2183 173.698Z" fill="#178AB7"/>
<path d="M94.0199 157.368L83.9985 163.265L101.773 173.698L83.9985 184.131L66.2183 173.698L83.9985 163.265L73.9765 157.368L46.1724 173.696L83.9985 195.897L121.819 173.696L94.0199 157.368Z" fill="#00397F"/>
<path d="M129.558 59.4907L139.592 65.3664L139.591 44.4988L157.366 54.9332L157.369 75.8046L139.592 65.3664L139.58 77.1388L167.39 93.4558L167.388 49.0508L129.566 26.8507L129.558 59.4907Z" fill="#178AB7"/>
<path d="M28.4097 77.1438L28.3975 65.3714L10.6228 75.8058L10.6234 54.9388L28.4006 44.5L28.3975 65.3714L38.4317 59.4963L38.4256 26.8519L0.601318 49.0557L0.601926 93.457L28.4097 77.1438Z" fill="#00397F"/>
<path d="M83.9961 0.0999756L46.1724 22.3118L83.9985 44.5124L121.819 22.3118L83.9961 0.0999756ZM66.2183 22.3142L83.9985 11.881L101.773 22.3142L83.9985 32.7468L66.2183 22.3142Z" fill="#178AB7"/>
<path d="M129.558 124.743L129.566 169.152L167.39 146.947V102.547L129.558 124.744V124.743ZM139.591 151.503L139.594 130.632L157.369 120.198V141.064L139.591 151.503Z" fill="#00397F"/>
<path d="M73.9739 80.3566V92.1209L28.3975 65.3714L38.4317 59.4963L73.9739 80.3566Z" fill="#00397F"/>
<path d="M139.594 65.3658L139.583 77.1358L104.042 98.0022L94.0198 92.1203L139.594 65.3658Z" fill="#00397F"/>
<path d="M83.9961 163.265L94.0163 157.37L94.02 115.644L84.1328 109.85L83.9961 163.265Z" fill="#00397F"/>
<path d="M94.0199 92.1203V38.6361L83.9985 44.5124L83.9948 98.0022L38.4451 124.742L38.4324 136.515L84.1328 109.85L83.9948 98.0022L94.0199 92.1203Z" fill="#00397F"/>
<path d="M0.600098 146.957L0.608604 102.548L38.4323 124.752V169.152L0.600098 146.957ZM10.6337 120.197L10.6367 141.068L28.4115 151.502V130.635L10.6337 120.197Z" fill="#178AB7"/>
</svg>
