<svg width="160" height="159" viewBox="0 0 160 159" fill="none" xmlns="http://www.w3.org/2000/svg">
<g id="Safe icon">
<path id="Vector (Stroke)" fill-rule="evenodd" clip-rule="evenodd" d="M21.8885 9.28256C15.2198 9.28256 9.81381 14.6886 9.81381 21.3572V137.576C9.81381 144.245 15.2198 149.651 21.8885 149.651H138.107C144.776 149.651 150.182 144.245 150.182 137.576V21.3572C150.182 14.6886 144.776 9.28256 138.107 9.28256H21.8885ZM0.757812 21.3572C0.757812 9.68709 10.2183 0.226562 21.8885 0.226562H138.107C149.777 0.226562 159.238 9.68709 159.238 21.3572V137.576C159.238 149.246 149.777 158.707 138.107 158.707H21.8885C10.2183 158.707 0.757812 149.246 0.757812 137.576V21.3572Z" fill="#F2F2F2"/>
<path id="Vector" d="M42.6194 46.2388C44.9118 46.2388 46.7701 44.3805 46.7701 42.0882C46.7701 39.7958 44.9118 37.9375 42.6194 37.9375C40.3271 37.9375 38.4688 39.7958 38.4688 42.0882C38.4688 44.3805 40.3271 46.2388 42.6194 46.2388Z" fill="#F2F2F2"/>
<path id="Vector (Stroke)_2" fill-rule="evenodd" clip-rule="evenodd" d="M42.6162 42.4622C42.8246 42.4622 42.9935 42.2933 42.9935 42.0849C42.9935 41.8765 42.8246 41.7076 42.6162 41.7076C42.4078 41.7076 42.2388 41.8765 42.2388 42.0849C42.2388 42.2933 42.4078 42.4622 42.6162 42.4622ZM33.9375 42.0849C33.9375 37.2918 37.8231 33.4062 42.6162 33.4062C47.4093 33.4062 51.2948 37.2918 51.2948 42.0849C51.2948 46.878 47.4093 50.7636 42.6162 50.7636C37.8231 50.7636 33.9375 46.878 33.9375 42.0849Z" fill="#F2F2F2"/>
<path id="Vector (Stroke)_3" fill-rule="evenodd" clip-rule="evenodd" d="M42.7637 42.2325C44.532 40.4642 47.399 40.4642 49.1673 42.2325L71.5809 64.6461C73.3492 66.4144 73.3492 69.2813 71.5809 71.0496C69.8126 72.8179 66.9456 72.8179 65.1773 71.0496L42.7637 48.636C40.9954 46.8677 40.9954 44.0008 42.7637 42.2325Z" fill="#F2F2F2"/>
<path id="Vector_2" d="M117.33 46.2388C119.623 46.2388 121.481 44.3805 121.481 42.0882C121.481 39.7958 119.623 37.9375 117.33 37.9375C115.038 37.9375 113.18 39.7958 113.18 42.0882C113.18 44.3805 115.038 46.2388 117.33 46.2388Z" fill="#F2F2F2"/>
<path id="Vector (Stroke)_4" fill-rule="evenodd" clip-rule="evenodd" d="M117.335 42.4622C117.543 42.4622 117.712 42.2933 117.712 42.0849C117.712 41.8765 117.543 41.7076 117.335 41.7076C117.127 41.7076 116.958 41.8765 116.958 42.0849C116.958 42.2933 117.127 42.4622 117.335 42.4622ZM108.656 42.0849C108.656 37.2918 112.542 33.4062 117.335 33.4062C122.128 33.4062 126.014 37.2918 126.014 42.0849C126.014 46.878 122.128 50.7636 117.335 50.7636C112.542 50.7636 108.656 46.878 108.656 42.0849Z" fill="#F2F2F2"/>
<path id="Vector (Stroke)_5" fill-rule="evenodd" clip-rule="evenodd" d="M117.222 42.2325C118.99 44.0008 118.99 46.8677 117.222 48.636L94.8079 71.0496C93.0396 72.8179 90.1726 72.8179 88.4043 71.0496C86.6361 69.2813 86.6361 66.4144 88.4043 64.6461L110.818 42.2325C112.586 40.4642 115.453 40.4642 117.222 42.2325Z" fill="#F2F2F2"/>
<path id="Vector_3" d="M42.6194 120.95C44.9118 120.95 46.7701 119.091 46.7701 116.799C46.7701 114.507 44.9118 112.648 42.6194 112.648C40.3271 112.648 38.4688 114.507 38.4688 116.799C38.4688 119.091 40.3271 120.95 42.6194 120.95Z" fill="#F2F2F2"/>
<path id="Vector (Stroke)_6" fill-rule="evenodd" clip-rule="evenodd" d="M42.6162 117.173C42.8246 117.173 42.9935 117.004 42.9935 116.796C42.9935 116.587 42.8246 116.419 42.6162 116.419C42.4078 116.419 42.2388 116.587 42.2388 116.796C42.2388 117.004 42.4078 117.173 42.6162 117.173ZM33.9375 116.796C33.9375 112.003 37.8231 108.117 42.6162 108.117C47.4093 108.117 51.2948 112.003 51.2948 116.796C51.2948 121.589 47.4093 125.475 42.6162 125.475C37.8231 125.475 33.9375 121.589 33.9375 116.796Z" fill="#F2F2F2"/>
<path id="Vector (Stroke)_7" fill-rule="evenodd" clip-rule="evenodd" d="M71.5809 87.8653C73.3492 89.6336 73.3492 92.5005 71.5809 94.2688L49.1673 116.682C47.399 118.451 44.532 118.451 42.7637 116.682C40.9954 114.914 40.9954 112.047 42.7637 110.279L65.1773 87.8653C66.9456 86.097 69.8126 86.097 71.5809 87.8653Z" fill="#F2F2F2"/>
<path id="Vector_4" d="M117.33 120.95C119.623 120.95 121.481 119.091 121.481 116.799C121.481 114.507 119.623 112.648 117.33 112.648C115.038 112.648 113.18 114.507 113.18 116.799C113.18 119.091 115.038 120.95 117.33 120.95Z" fill="#F2F2F2"/>
<path id="Vector (Stroke)_8" fill-rule="evenodd" clip-rule="evenodd" d="M117.335 117.173C117.543 117.173 117.712 117.004 117.712 116.796C117.712 116.587 117.543 116.419 117.335 116.419C117.127 116.419 116.958 116.587 116.958 116.796C116.958 117.004 117.127 117.173 117.335 117.173ZM108.656 116.796C108.656 112.003 112.542 108.117 117.335 108.117C122.128 108.117 126.014 112.003 126.014 116.796C126.014 121.589 122.128 125.475 117.335 125.475C112.542 125.475 108.656 121.589 108.656 116.796Z" fill="#F2F2F2"/>
<path id="Vector (Stroke)_9" fill-rule="evenodd" clip-rule="evenodd" d="M88.4043 87.8653C90.1726 86.097 93.0396 86.097 94.8079 87.8653L117.222 110.279C118.99 112.047 118.99 114.914 117.222 116.682C115.453 118.451 112.586 118.451 110.818 116.682L88.4043 94.2688C86.6361 92.5005 86.6361 89.6336 88.4043 87.8653Z" fill="#F2F2F2"/>
<path id="Vector (Stroke)_10" fill-rule="evenodd" clip-rule="evenodd" d="M79.9744 67.3685C73.3058 67.3685 67.8997 72.7745 67.8997 79.4432C67.8997 86.1118 73.3058 91.5178 79.9744 91.5178C86.6431 91.5178 92.0491 86.1118 92.0491 79.4432C92.0491 72.7745 86.6431 67.3685 79.9744 67.3685ZM58.8438 79.4432C58.8438 67.773 68.3043 58.3125 79.9744 58.3125C91.6446 58.3125 101.105 67.773 101.105 79.4432C101.105 91.1133 91.6446 100.574 79.9744 100.574C68.3043 100.574 58.8438 91.1133 58.8438 79.4432Z" fill="#F2F2F2"/>
</g>
</svg>
