<?xml version="1.0" encoding="UTF-8"?>
<svg id="Layer_1" xmlns="http://www.w3.org/2000/svg" viewBox="0 0 2745.15 3169.7">
  <defs>
    <style>
      .cls-1 {
        fill: #178ab7;
      }

      .cls-2 {
        fill: #00397f;
      }
    </style>
  </defs>
  <path class="cls-1" d="M1995.11,2810.29l-457.54-264.32v-675.32l584.84,337.64.12,528.46,622.53-359.44v-718.85l-457.7,264.13-584.92-337.68,584.92-337.68,457.7,264.09-.04-718.81-622.53-359.44-.08,528.46-584.84,337.64v-675.32l457.54-264.32L1372.63.12l-622.57,359.4,457.62,264.32-.04,675.39-584.88-337.72-.12-528.46L.11,792.52v718.85l457.7-264.13,584.84,337.68-584.84,337.68L.07,1658.46l.04,718.85,622.53,359.4.12-528.42,584.88-337.72.04,675.39-457.62,264.32,622.57,359.4,622.49-359.4ZM2580.11,2282.07l-292.56,168.94v-337.83l292.56-168.94v337.83ZM2287.56,1056.65l-.04-337.83,292.56,168.94.04,337.79-292.56-168.9ZM1079.99,359.49l292.64-168.9,292.56,168.9-292.56,168.9-292.64-168.9ZM165.06,887.75l292.56-168.94v337.83l-292.56,168.94v-337.83ZM457.62,2113.17v337.79l-292.56-168.9-.04-337.83,292.6,168.94ZM1079.99,2810.33l292.64-168.9,292.56,168.9-292.56,168.9-292.64-168.9Z"/>
  <polygon class="cls-2" points="1537.57 2545.97 1372.63 2641.43 1665.18 2810.33 1372.63 2979.23 1079.99 2810.33 1372.63 2641.43 1207.68 2545.97 750.06 2810.29 1372.63 3169.7 1995.11 2810.29 1537.57 2545.97"/>
  <polygon class="cls-1" points="2122.48 961.46 2287.63 1056.58 2287.62 718.76 2580.17 887.68 2580.22 1225.56 2287.63 1056.58 2287.43 1247.16 2745.15 1511.31 2745.12 792.45 2122.62 433.06 2122.48 961.46"/>
  <polygon class="cls-2" points="457.71 1247.24 457.51 1056.66 164.96 1225.58 164.97 887.77 457.56 718.78 457.51 1056.66 622.66 961.55 622.56 433.08 .02 792.53 .03 1511.33 457.71 1247.24"/>
  <path class="cls-1" d="M1372.59,0l-622.53,359.58,622.57,359.4,622.48-359.4L1372.59,0ZM1079.99,359.62l292.64-168.9,292.55,168.9-292.55,168.89-292.64-168.89Z"/>
  <path class="cls-2" d="M2122.48,2017.81l.14,718.92,622.53-359.46v-718.78s-622.67,359.33-622.67,359.33ZM2287.62,2451.02l.05-337.88,292.55-168.91v337.8s-292.6,168.99-292.6,168.99Z"/>
  <polyline class="cls-2" points="1207.64 1299.25 1207.64 1489.7 457.51 1056.66 622.66 961.55 1207.64 1299.25"/>
  <polyline class="cls-2" points="2287.67 1056.57 2287.48 1247.11 1702.52 1584.91 1537.57 1489.69 2287.67 1056.57"/>
  <polyline class="cls-2" points="1372.59 2641.43 1537.51 2546 1537.57 1870.51 1374.84 1776.71 1372.59 2641.43"/>
  <polygon class="cls-2" points="1537.57 1489.69 1537.57 623.85 1372.63 718.98 1372.57 1584.91 622.88 2017.8 622.67 2208.38 1374.84 1776.71 1372.57 1584.91 1537.57 1489.69"/>
  <path class="cls-1" d="M0,2377.42l.14-718.92,622.53,359.46v718.78S0,2377.42,0,2377.42ZM165.14,1944.21l.05,337.88,292.55,168.91v-337.8s-292.6-168.99-292.6-168.99Z"/>
</svg>