<svg width="29" height="30" viewBox="0 0 29 30" fill="none" xmlns="http://www.w3.org/2000/svg">
<g id="Group 216">
<path id="Vector (Stroke)" fill-rule="evenodd" clip-rule="evenodd" d="M0 3.275C0 1.67337 1.29837 0.375 2.9 0.375H10.15C11.7516 0.375 13.05 1.67337 13.05 3.275V10.525C13.05 12.1266 11.7516 13.425 10.15 13.425H2.9C1.29837 13.425 0 12.1266 0 10.525V3.275ZM10.15 3.275H2.9V10.525H10.15V3.275Z" fill="#F2F2F2"/>
<path id="Vector (Stroke)_2" fill-rule="evenodd" clip-rule="evenodd" d="M15.9531 3.275C15.9531 1.67337 17.2515 0.375 18.8531 0.375H26.1031C27.7048 0.375 29.0031 1.67337 29.0031 3.275V10.525C29.0031 12.1266 27.7048 13.425 26.1031 13.425H18.8531C17.2515 13.425 15.9531 12.1266 15.9531 10.525V3.275ZM26.1031 3.275H18.8531V10.525H26.1031V3.275Z" fill="#F2F2F2"/>
<path id="Vector (Stroke)_3" fill-rule="evenodd" clip-rule="evenodd" d="M15.9531 19.2281C15.9531 17.6265 17.2515 16.3281 18.8531 16.3281H26.1031C27.7048 16.3281 29.0031 17.6265 29.0031 19.2281V26.4781C29.0031 28.0798 27.7048 29.3781 26.1031 29.3781H18.8531C17.2515 29.3781 15.9531 28.0798 15.9531 26.4781V19.2281ZM26.1031 19.2281H18.8531V26.4781H26.1031V19.2281Z" fill="#F2F2F2"/>
<path id="Vector (Stroke)_4" fill-rule="evenodd" clip-rule="evenodd" d="M0 19.2281C0 17.6265 1.29837 16.3281 2.9 16.3281H10.15C11.7516 16.3281 13.05 17.6265 13.05 19.2281V26.4781C13.05 28.0798 11.7516 29.3781 10.15 29.3781H2.9C1.29837 29.3781 0 28.0798 0 26.4781V19.2281ZM10.15 19.2281H2.9V26.4781H10.15V19.2281Z" fill="#F2F2F2"/>
</g>
</svg>
