<svg width="29" height="30" viewBox="0 0 29 30" fill="none" xmlns="http://www.w3.org/2000/svg">
<g id="Group 189">
<path id="Vector (Stroke)" fill-rule="evenodd" clip-rule="evenodd" d="M9.94222 12.4662C11.1508 11.4774 12.79 10.9219 14.4991 10.9219C16.2083 10.9219 17.8475 11.4774 19.056 12.4662C20.2646 13.455 20.9436 14.7962 20.9436 16.1946C20.9436 16.9226 20.2223 17.5128 19.3325 17.5128C18.4427 17.5128 17.7214 16.9226 17.7214 16.1946C17.7214 15.4954 17.3819 14.8248 16.7776 14.3304C16.1733 13.836 15.3537 13.5582 14.4991 13.5582C13.6445 13.5582 12.825 13.836 12.2207 14.3304C11.6164 14.8248 11.2769 15.4954 11.2769 16.1946C11.2769 16.9226 10.5556 17.5128 9.6658 17.5128C8.77601 17.5128 8.05469 16.9226 8.05469 16.1946C8.05469 14.7962 8.73365 13.455 9.94222 12.4662Z" fill="#F2F2F2"/>
<path id="Vector (Stroke)_2" fill-rule="evenodd" clip-rule="evenodd" d="M5.63889 3.01136C4.99795 3.01136 4.38326 3.21968 3.93005 3.59049C3.47683 3.9613 3.22222 4.46423 3.22222 4.98864V20.5929C3.97047 20.3025 4.79493 20.1477 5.63889 20.1477H25.7778V3.01136H5.63889ZM29 3.01136C29 2.31216 28.6605 1.64159 28.0562 1.14717C27.452 0.652758 26.6324 0.375 25.7778 0.375H5.63889C4.14336 0.375 2.70909 0.861078 1.65159 1.7263C0.594095 2.59153 0 3.76502 0 4.98864V24.7614C0 25.985 0.594095 27.1585 1.65159 28.0237C2.70909 28.8889 4.14336 29.375 5.63889 29.375H25.7778C26.6324 29.375 27.4519 29.0972 28.0562 28.6028C28.6605 28.1084 29 27.4378 29 26.7386V3.01136ZM25.7778 22.7841H5.63889C4.99795 22.7841 4.38326 22.9924 3.93005 23.3632C3.47683 23.734 3.22222 24.237 3.22222 24.7614C3.22222 25.2858 3.47683 25.7887 3.93005 26.1595C4.38326 26.5303 4.99795 26.7386 5.63889 26.7386H25.7778V22.7841Z" fill="#F2F2F2"/>
<path id="Vector (Stroke)_3" fill-rule="evenodd" clip-rule="evenodd" d="M14.4545 8.01136C13.7265 8.01136 13.1364 8.60153 13.1364 9.32955C13.1364 10.0576 13.7265 10.6477 14.4545 10.6477C15.1826 10.6477 15.7727 10.0576 15.7727 9.32955C15.7727 8.60153 15.1826 8.01136 14.4545 8.01136ZM10.5 9.32955C10.5 7.14551 12.2705 5.375 14.4545 5.375C16.6386 5.375 18.4091 7.14551 18.4091 9.32955C18.4091 11.5136 16.6386 13.2841 14.4545 13.2841C12.2705 13.2841 10.5 11.5136 10.5 9.32955Z" fill="#F2F2F2"/>
</g>
</svg>
