<svg width="29" height="30" viewBox="0 0 29 30" fill="none" xmlns="http://www.w3.org/2000/svg">
<g id="Group 191">
<path id="Vector (Stroke)" fill-rule="evenodd" clip-rule="evenodd" d="M9.22798 3.01136C8.87838 3.01136 8.54309 3.15024 8.29589 3.39745C8.04868 3.64466 7.9098 3.97994 7.9098 4.32955V26.7386H21.0916V4.32955C21.0916 3.97994 20.9527 3.64466 20.7055 3.39745C20.4583 3.15024 20.123 3.01136 19.7734 3.01136H9.22798ZM6.4317 1.53326C7.17332 0.791638 8.17917 0.375 9.22798 0.375H19.7734C20.8222 0.375 21.8281 0.791638 22.5697 1.53326C23.3113 2.27488 23.728 3.28073 23.728 4.32955V28.0568C23.728 28.7848 23.1378 29.375 22.4098 29.375H6.59162C5.86361 29.375 5.27344 28.7848 5.27344 28.0568V4.32955C5.27344 3.28074 5.69008 2.27488 6.4317 1.53326Z" fill="#F2F2F2"/>
<path id="Vector (Stroke)_2" fill-rule="evenodd" clip-rule="evenodd" d="M1.15826 14.7129C1.89988 13.9713 2.90573 13.5547 3.95455 13.5547H6.59091C7.31892 13.5547 7.90909 14.1449 7.90909 14.8729C7.90909 15.6009 7.31892 16.1911 6.59091 16.1911H3.95455C3.60494 16.1911 3.26966 16.3299 3.02245 16.5771C2.77524 16.8243 2.63636 17.1596 2.63636 17.5092V25.4183C2.63636 25.7679 2.77524 26.1032 3.02245 26.3504C3.26966 26.5976 3.60494 26.7365 3.95455 26.7365H6.59091C7.31892 26.7365 7.90909 27.3267 7.90909 28.0547C7.90909 28.7827 7.31892 29.3729 6.59091 29.3729H3.95455C2.90573 29.3729 1.89988 28.9562 1.15826 28.2146C0.416638 27.473 0 26.4671 0 25.4183V17.5092C0 16.4604 0.416638 15.4546 1.15826 14.7129Z" fill="#F2F2F2"/>
<path id="Vector (Stroke)_3" fill-rule="evenodd" clip-rule="evenodd" d="M21.0938 10.9197C21.0938 10.1917 21.6839 9.60156 22.4119 9.60156H25.0483C26.0971 9.60156 27.103 10.0182 27.8446 10.7598C28.5862 11.5014 29.0028 12.5073 29.0028 13.5561V25.4197C29.0028 26.4686 28.5862 27.4744 27.8446 28.216C27.103 28.9577 26.0971 29.3743 25.0483 29.3743H22.4119C21.6839 29.3743 21.0938 28.7841 21.0938 28.0561C21.0938 27.3281 21.6839 26.7379 22.4119 26.7379H25.0483C25.3979 26.7379 25.7332 26.599 25.9804 26.3518C26.2276 26.1046 26.3665 25.7693 26.3665 25.4197V13.5561C26.3665 13.2065 26.2276 12.8712 25.9804 12.624C25.7332 12.3768 25.3979 12.2379 25.0483 12.2379H22.4119C21.6839 12.2379 21.0938 11.6478 21.0938 10.9197Z" fill="#F2F2F2"/>
<path id="Vector (Stroke)_4" fill-rule="evenodd" clip-rule="evenodd" d="M10.5469 6.96662C10.5469 6.23861 11.137 5.64844 11.8651 5.64844H17.1378C17.8658 5.64844 18.456 6.23861 18.456 6.96662C18.456 7.69463 17.8658 8.2848 17.1378 8.2848H11.8651C11.137 8.2848 10.5469 7.69463 10.5469 6.96662Z" fill="#F2F2F2"/>
<path id="Vector (Stroke)_5" fill-rule="evenodd" clip-rule="evenodd" d="M10.5469 12.2401C10.5469 11.512 11.137 10.9219 11.8651 10.9219H17.1378C17.8658 10.9219 18.456 11.512 18.456 12.2401C18.456 12.9681 17.8658 13.5582 17.1378 13.5582H11.8651C11.137 13.5582 10.5469 12.9681 10.5469 12.2401Z" fill="#F2F2F2"/>
<path id="Vector (Stroke)_6" fill-rule="evenodd" clip-rule="evenodd" d="M10.5469 17.5135C10.5469 16.7855 11.137 16.1953 11.8651 16.1953H17.1378C17.8658 16.1953 18.456 16.7855 18.456 17.5135C18.456 18.2415 17.8658 18.8317 17.1378 18.8317H11.8651C11.137 18.8317 10.5469 18.2415 10.5469 17.5135Z" fill="#F2F2F2"/>
<path id="Vector (Stroke)_7" fill-rule="evenodd" clip-rule="evenodd" d="M10.5469 22.7869C10.5469 22.0589 11.137 21.4688 11.8651 21.4688H17.1378C17.8658 21.4688 18.456 22.0589 18.456 22.7869C18.456 23.5149 17.8658 24.1051 17.1378 24.1051H11.8651C11.137 24.1051 10.5469 23.5149 10.5469 22.7869Z" fill="#F2F2F2"/>
</g>
</svg>
