<svg width="17" height="18" viewBox="0 0 17 18" fill="none" xmlns="http://www.w3.org/2000/svg">
<g id="Bullet point">
<path id="Vector (Stroke)" fill-rule="evenodd" clip-rule="evenodd" d="M8.49805 2.16504C4.9082 2.16504 1.99805 5.07519 1.99805 8.66504C1.99805 12.2549 4.9082 15.165 8.49805 15.165C12.0879 15.165 14.998 12.2549 14.998 8.66504C14.998 5.07519 12.0879 2.16504 8.49805 2.16504ZM-0.00195312 8.66504C-0.00195312 3.97062 3.80363 0.165039 8.49805 0.165039C13.1925 0.165039 16.998 3.97062 16.998 8.66504C16.998 13.3595 13.1925 17.165 8.49805 17.165C3.80363 17.165 -0.00195312 13.3595 -0.00195312 8.66504Z" fill="#F2F2F2"/>
<path id="Vector" d="M8.49805 9.41504C8.91226 9.41504 9.24805 9.07925 9.24805 8.66504C9.24805 8.25083 8.91226 7.91504 8.49805 7.91504C8.08383 7.91504 7.74805 8.25083 7.74805 8.66504C7.74805 9.07925 8.08383 9.41504 8.49805 9.41504Z" fill="#F2F2F2"/>
<path id="Vector (Stroke)_2" fill-rule="evenodd" clip-rule="evenodd" d="M8.49805 8.91504C8.63612 8.91504 8.74805 8.80311 8.74805 8.66504C8.74805 8.52697 8.63612 8.41504 8.49805 8.41504C8.35998 8.41504 8.24805 8.52697 8.24805 8.66504C8.24805 8.80311 8.35998 8.91504 8.49805 8.91504ZM6.74805 8.66504C6.74805 7.69854 7.53155 6.91504 8.49805 6.91504C9.46455 6.91504 10.248 7.69854 10.248 8.66504C10.248 9.63154 9.46455 10.415 8.49805 10.415C7.53155 10.415 6.74805 9.63154 6.74805 8.66504Z" fill="#F2F2F2"/>
</g>
</svg>
