<svg width="29" height="29" viewBox="0 0 29 29" fill="none" xmlns="http://www.w3.org/2000/svg">
<g id="Group 482">
<path id="Vector (Stroke)" fill-rule="evenodd" clip-rule="evenodd" d="M0 14.5011C0 13.3571 0.721319 12.4297 1.61111 12.4297H27.3889C28.2787 12.4297 29 13.3571 29 14.5011C29 15.6451 28.2787 16.5725 27.3889 16.5725H1.61111C0.721319 16.5725 0 15.6451 0 14.5011Z" fill="#F2F2F2"/>
<path id="Vector (Stroke)_2" fill-rule="evenodd" clip-rule="evenodd" d="M0 2.07143C0 0.92741 0.721319 0 1.61111 0H27.3889C28.2787 0 29 0.92741 29 2.07143C29 3.21545 28.2787 4.14286 27.3889 4.14286H1.61111C0.721319 4.14286 0 3.21545 0 2.07143Z" fill="#F2F2F2"/>
<path id="Vector (Stroke)_3" fill-rule="evenodd" clip-rule="evenodd" d="M0 26.9308C0 25.7868 0.721319 24.8594 1.61111 24.8594H27.3889C28.2787 24.8594 29 25.7868 29 26.9308C29 28.0748 28.2787 29.0022 27.3889 29.0022H1.61111C0.721319 29.0022 0 28.0748 0 26.9308Z" fill="#F2F2F2"/>
</g>
</svg>
