<svg width="26" height="19" viewBox="0 0 26 19" fill="none" xmlns="http://www.w3.org/2000/svg">
    <rect x="0.622559" y="3.39062" width="23.5678" height="15" rx="1" fill="#F2F2F2"/>
    <path d="M0.622559 4.39062C0.622559 3.83834 1.07027 3.39062 1.62256 3.39062H23.1904C23.7427 3.39062 24.1904 3.83834 24.1904 4.39062V7.39062H0.622559V4.39062Z" fill="#E0E0E0"/>
    <rect x="2.771" y="8.39062" width="19.2828" height="2" rx="1" fill="#FCFCFC"/>
    <g clip-path="url(#clip0_174_7)">
        <path d="M19.4819 12.3906C22.7956 12.3906 25.4819 9.70434 25.4819 6.39062C25.4819 3.07692 22.7956 0.390625 19.4819 0.390625C16.1682 0.390625 13.4819 3.07692 13.4819 6.39062C13.4819 9.70434 16.1682 12.3906 19.4819 12.3906Z" fill="#4F4F4F"/>
        <path d="M16.5869 4.04004V8.31738H15.8105V4.94531L14.7822 5.28516V4.6582L16.499 4.04004H16.5869Z" fill="#FCFCFC"/>
        <path d="M20.9111 7.70801V8.31738H18.0225V7.7959L19.4082 6.29883C19.5527 6.13477 19.667 5.99219 19.751 5.87109C19.835 5.75 19.8945 5.64062 19.9297 5.54297C19.9668 5.44336 19.9854 5.34863 19.9854 5.25879C19.9854 5.12793 19.9619 5.01367 19.915 4.91602C19.8682 4.81641 19.7998 4.73926 19.71 4.68457C19.6221 4.62988 19.5137 4.60254 19.3848 4.60254C19.2422 4.60254 19.1201 4.63574 19.0186 4.70215C18.9189 4.7666 18.8428 4.85645 18.79 4.97168C18.7393 5.08691 18.7139 5.21875 18.7139 5.36719H17.9375C17.9375 5.11523 17.9961 4.88574 18.1133 4.67871C18.2305 4.46973 18.3984 4.30273 18.6172 4.17773C18.8359 4.05273 19.0957 3.99023 19.3965 3.99023C19.6895 3.99023 19.9375 4.03906 20.1406 4.13672C20.3438 4.23242 20.498 4.36914 20.6035 4.54688C20.709 4.72461 20.7617 4.93652 20.7617 5.18262C20.7617 5.31934 20.7393 5.4541 20.6943 5.58691C20.6494 5.71973 20.5859 5.85156 20.5039 5.98242C20.4238 6.11133 20.3281 6.24219 20.2168 6.375C20.1055 6.50781 19.9814 6.64355 19.8447 6.78223L19.0127 7.70801H20.9111Z" fill="#FCFCFC"/>
        <path d="M22.2969 5.8418H22.7334C22.8877 5.8418 23.0146 5.81543 23.1143 5.7627C23.2158 5.70801 23.291 5.63379 23.3398 5.54004C23.3906 5.44434 23.416 5.33398 23.416 5.20898C23.416 5.08594 23.3936 4.97949 23.3486 4.88965C23.3037 4.79785 23.2354 4.72754 23.1436 4.67871C23.0537 4.62793 22.9385 4.60254 22.7979 4.60254C22.6846 4.60254 22.5801 4.625 22.4844 4.66992C22.3906 4.71484 22.3154 4.7793 22.2588 4.86328C22.2041 4.94531 22.1768 5.04395 22.1768 5.15918H21.4004C21.4004 4.92871 21.4609 4.72656 21.582 4.55273C21.7051 4.37695 21.8711 4.23926 22.0801 4.13965C22.2891 4.04004 22.5225 3.99023 22.7803 3.99023C23.0615 3.99023 23.3076 4.03711 23.5186 4.13086C23.7314 4.22266 23.8965 4.3584 24.0137 4.53809C24.1328 4.71777 24.1924 4.94043 24.1924 5.20605C24.1924 5.33301 24.1621 5.45996 24.1016 5.58691C24.043 5.71191 23.9561 5.8252 23.8408 5.92676C23.7275 6.02637 23.5879 6.10742 23.4219 6.16992C23.2578 6.23047 23.0693 6.26074 22.8564 6.26074H22.2969V5.8418ZM22.2969 6.43945V6.02637H22.8564C23.0967 6.02637 23.3047 6.05469 23.4805 6.11133C23.6582 6.16602 23.8047 6.24414 23.9199 6.3457C24.0352 6.44531 24.1201 6.56152 24.1748 6.69434C24.2314 6.82715 24.2598 6.96973 24.2598 7.12207C24.2598 7.32129 24.2227 7.49902 24.1484 7.65527C24.0742 7.80957 23.9697 7.94043 23.835 8.04785C23.7021 8.15527 23.5459 8.2373 23.3662 8.29395C23.1865 8.34863 22.9922 8.37598 22.7832 8.37598C22.6016 8.37598 22.4248 8.35156 22.2529 8.30273C22.083 8.25195 21.9297 8.17676 21.793 8.07715C21.6562 7.97559 21.5479 7.84863 21.4678 7.69629C21.3877 7.54199 21.3477 7.36328 21.3477 7.16016H22.124C22.124 7.27734 22.1523 7.38184 22.209 7.47363C22.2676 7.56543 22.3477 7.6377 22.4492 7.69043C22.5527 7.74121 22.6689 7.7666 22.7979 7.7666C22.9404 7.7666 23.0625 7.74121 23.1641 7.69043C23.2676 7.6377 23.3467 7.56348 23.4014 7.46777C23.4561 7.37012 23.4834 7.25391 23.4834 7.11914C23.4834 6.95898 23.4531 6.8291 23.3926 6.72949C23.332 6.62988 23.2451 6.55664 23.1318 6.50977C23.0205 6.46289 22.8877 6.43945 22.7334 6.43945H22.2969Z" fill="#FCFCFC"/>
    </g>
    <defs>
        <clipPath id="clip0_174_7">
            <rect width="12" height="12" fill="white" transform="translate(13.4819 0.390625)"/>
        </clipPath>
    </defs>
</svg>
