<svg width="22" height="18" viewBox="0 0 22 18" fill="none" xmlns="http://www.w3.org/2000/svg">
<g id="Card icon">
<path id="Vector (Stroke)" fill-rule="evenodd" clip-rule="evenodd" d="M0 0.987632C0 0.527394 0.373097 0.154297 0.833335 0.154297H20.8333C21.2936 0.154297 21.6667 0.527394 21.6667 0.987632V5.98763C21.6667 6.44787 21.2936 6.82097 20.8333 6.82097C20.3731 6.82097 20 6.44787 20 5.98763V1.82097H1.66667V5.98763C1.66667 6.44787 1.29357 6.82097 0.833335 6.82097C0.373097 6.82097 0 6.44787 0 5.98763V0.987632Z" fill="#4D4D4D"/>
<path id="Vector" d="M20.832 5.99023H0.832031V16.9902H20.832V5.99023Z" fill="#4D4D4D"/>
<path id="Vector (Stroke)_2" fill-rule="evenodd" clip-rule="evenodd" d="M0 5.98763C0 5.52739 0.373097 5.1543 0.833335 5.1543H20.8333C21.2936 5.1543 21.6667 5.52739 21.6667 5.98763V16.9876C21.6667 17.4479 21.2936 17.821 20.8333 17.821H0.833335C0.373097 17.821 0 17.4479 0 16.9876V5.98763ZM1.66667 6.82097V16.1543H20V6.82097H1.66667Z" fill="#4D4D4D"/>
<path id="Vector (Stroke)_3" fill-rule="evenodd" clip-rule="evenodd" d="M4 11.4876C4 11.0274 4.3731 10.6543 4.83333 10.6543H5.83333C6.29357 10.6543 6.66667 11.0274 6.66667 11.4876C6.66667 11.9479 6.29357 12.321 5.83333 12.321H4.83333C4.3731 12.321 4 11.9479 4 11.4876Z" fill="white"/>
<path id="Vector (Stroke)_4" fill-rule="evenodd" clip-rule="evenodd" d="M8 11.4876C8 11.0274 8.3731 10.6543 8.83333 10.6543H9.83333C10.2936 10.6543 10.6667 11.0274 10.6667 11.4876C10.6667 11.9479 10.2936 12.321 9.83333 12.321H8.83333C8.3731 12.321 8 11.9479 8 11.4876Z" fill="white"/>
<path id="Vector (Stroke)_5" fill-rule="evenodd" clip-rule="evenodd" d="M12 11.4876C12 11.0274 12.3731 10.6543 12.8333 10.6543H13.8333C14.2936 10.6543 14.6667 11.0274 14.6667 11.4876C14.6667 11.9479 14.2936 12.321 13.8333 12.321H12.8333C12.3731 12.321 12 11.9479 12 11.4876Z" fill="white"/>
</g>
</svg>
