<svg width="16" height="10" viewBox="0 0 16 10" fill="none" xmlns="http://www.w3.org/2000/svg">
<g id="Container">
<path id="Slider" fill-rule="evenodd" clip-rule="evenodd" d="M11.2873 9.42859C13.7997 9.42859 15.8365 7.36821 15.8365 4.8266C15.8365 2.28499 13.7997 0.224609 11.2873 0.224609C10.1613 0.224609 9.13081 0.638458 8.33642 1.324C7.54204 0.638482 6.5116 0.22465 5.38561 0.22465C2.87316 0.22465 0.836426 2.28503 0.836426 4.82664C0.836426 7.36825 2.87316 9.42863 5.38561 9.42863C6.51162 9.42863 7.54208 9.01478 8.33647 8.32924C9.13085 9.01476 10.1613 9.42859 11.2873 9.42859Z" fill="#ED0006"/>
<path id="Container_2" fill-rule="evenodd" clip-rule="evenodd" d="M8.33643 8.32923C9.31455 7.48514 9.93478 6.22914 9.93478 4.8266C9.93478 3.42406 9.31455 2.16806 8.33643 1.32397C9.13081 0.638446 10.1613 0.224609 11.2873 0.224609C13.7997 0.224609 15.8364 2.28499 15.8364 4.8266C15.8364 7.36821 13.7997 9.42859 11.2873 9.42859C10.1613 9.42859 9.13081 9.01475 8.33643 8.32923Z" fill="#F9A000"/>
<path id="Rating container" fill-rule="evenodd" clip-rule="evenodd" d="M8.33662 8.32945C9.31473 7.48536 9.93495 6.22937 9.93495 4.82683C9.93495 3.4243 9.31473 2.16831 8.33662 1.32422C7.3585 2.16831 6.73828 3.4243 6.73828 4.82683C6.73828 6.22937 7.3585 7.48536 8.33662 8.32945Z" fill="#FF5E00"/>
</g>
</svg>
