<svg width="24" height="17" viewBox="0 0 24 17" fill="none" xmlns="http://www.w3.org/2000/svg">
<g id="Card">
<rect id="Text input" x="0.3361" y="1.05729" width="23" height="15.6667" rx="1.16667" fill="white" stroke="#D9D9D9" stroke-width="0.333333"/>
<path id="Horizontal container" fill-rule="evenodd" clip-rule="evenodd" d="M7.25294 11.7288H5.83939L4.7794 7.68491C4.72909 7.49889 4.62227 7.33444 4.46513 7.25693C4.07297 7.06215 3.64085 6.90713 3.16943 6.82895V6.67326H5.44655C5.76082 6.67326 5.99653 6.90713 6.03581 7.17875L6.58579 10.0958L7.99865 6.67326H9.37292L7.25294 11.7288ZM10.1586 11.7288H8.82365L9.92292 6.67326H11.2579L10.1586 11.7288ZM12.985 8.07378C13.0243 7.80149 13.26 7.6458 13.535 7.6458C13.9671 7.60671 14.4378 7.68489 14.8307 7.879L15.0664 6.79051C14.6736 6.63482 14.2414 6.55664 13.8493 6.55664C12.5536 6.55664 11.6108 7.25691 11.6108 8.2288C11.6108 8.96816 12.2786 9.35638 12.75 9.59025C13.26 9.82345 13.4564 9.97914 13.4171 10.2123C13.4171 10.5621 13.0243 10.7178 12.6321 10.7178C12.1607 10.7178 11.6893 10.6012 11.2579 10.4064L11.0222 11.4956C11.4936 11.6897 12.0036 11.7679 12.475 11.7679C13.9278 11.8063 14.8307 11.1067 14.8307 10.0566C14.8307 8.73429 12.985 8.65678 12.985 8.07378ZM19.5028 11.7288L18.4428 6.67326H17.3042C17.0685 6.67326 16.8328 6.82895 16.7542 7.06215L14.7914 11.7288H16.1656L16.4399 10.9901H18.1285L18.2856 11.7288H19.5028ZM17.5007 8.03467L17.8928 9.94003H16.7935L17.5007 8.03467Z" fill="#172B85"/>
</g>
</svg>
