<svg width="25" height="17" viewBox="0 0 25 17" fill="none" xmlns="http://www.w3.org/2000/svg">
<g id="Button container">
<rect id="Button" x="1.0026" y="1.05729" width="23" height="15.6667" rx="1.16667" fill="#1F72CD" stroke="#D9D9D9" stroke-width="0.333333"/>
<path id="Text input" fill-rule="evenodd" clip-rule="evenodd" d="M5.29017 6.55664L3.16943 11.3878H5.70826L6.023 10.6175H6.74242L7.05716 11.3878H9.8517V10.7999L10.1007 11.3878H11.5463L11.7953 10.7875V11.3878H17.6071L18.3138 10.6375L18.9755 11.3878L21.9606 11.394L19.8332 8.98571L21.9606 6.55664H19.0218L18.3339 7.29306L17.693 6.55664H11.3705L10.8276 7.8036L10.2719 6.55664H7.73839V7.12454L7.45655 6.55664H5.29017ZM13.969 7.24272H17.3065L18.3272 8.37777L19.3809 7.24272H20.4017L18.8507 8.98507L20.4017 10.7073H19.3346L18.3138 9.55911L17.2548 10.7073H13.969V7.24272ZM14.7932 8.59337V7.96053V7.95992H16.8757L17.7843 8.97199L16.8354 9.9896H14.7932V9.29872H16.6139V8.59337H14.7932ZM5.78146 7.24272H7.019L8.42569 10.5188V7.24272H9.78137L10.8679 9.59162L11.8692 7.24272H13.2181V10.7094H12.3973L12.3906 7.99293L11.194 10.7094H10.4598L9.25648 7.99293V10.7094H7.56796L7.24784 9.93221H5.51839L5.19894 10.7087H4.29425L5.78146 7.24272ZM5.81366 9.21371L6.38345 7.82922L6.95257 9.21371H5.81366Z" fill="white"/>
</g>
</svg>
