<svg width="21" height="11" viewBox="0 0 21 11" fill="none" xmlns="http://www.w3.org/2000/svg">
<g id="Button">
<path id="orange" d="M8.16943 10.224L20.8361 6.39062V9.55729C20.8361 9.92548 20.5376 10.224 20.1694 10.224H8.16943Z" fill="#FD6020"/>
<path id="Horizontal container" fill-rule="evenodd" clip-rule="evenodd" d="M18.4317 0.964518C19.1286 0.964518 19.5118 1.28688 19.5118 1.89579C19.5467 2.36142 19.2331 2.75542 18.815 2.82705L19.7557 4.15232H19.024L18.2226 2.86287H18.153V4.15232H17.5606V0.964518H18.4317ZM18.153 2.43311H18.3272C18.7104 2.43311 18.8847 2.25402 18.8847 1.93166C18.8847 1.64511 18.7104 1.46602 18.3272 1.46602H18.153V2.43311ZM15.5049 4.15232H17.1774V3.61505H16.0972V2.75542H17.1425V2.21815H16.0972V1.50179H17.1774V0.964518H15.5049V4.15232ZM13.7628 3.1136L12.9614 0.964518H12.3342L13.6234 4.22395H13.937L15.2262 0.964518H14.599L13.7628 3.1136ZM6.68958 2.57633C6.68958 3.47178 7.38644 4.22396 8.25752 4.22396C8.53626 4.22396 8.78016 4.15232 9.02407 4.04487V3.32851C8.84985 3.54342 8.60595 3.68669 8.3272 3.68669C7.76971 3.68669 7.31675 3.25687 7.31675 2.68379V2.61215C7.28191 2.03906 7.73487 1.53761 8.29236 1.50179C8.57111 1.50179 8.84985 1.64507 9.02407 1.85997V1.14361C8.81501 1.00034 8.53626 0.964524 8.29236 0.964524C7.38644 0.892889 6.68958 1.64507 6.68958 2.57633ZM5.60943 2.18233C5.261 2.03906 5.15647 1.96743 5.15647 1.78834C5.19131 1.57343 5.36553 1.39434 5.57459 1.43016C5.7488 1.43016 5.92302 1.53761 6.06239 1.68088L6.37598 1.25107C6.13208 1.03616 5.81849 0.892888 5.5049 0.892888C5.0171 0.85707 4.59898 1.25107 4.56414 1.75252V1.78834C4.56414 2.21815 4.73835 2.46888 5.29584 2.64797C5.43522 2.68379 5.57459 2.75542 5.71396 2.82706C5.81849 2.89869 5.88818 3.00615 5.88818 3.14942C5.88818 3.40015 5.67912 3.61505 5.47006 3.61505H5.43522C5.15647 3.61505 4.91257 3.43596 4.80804 3.18524L4.42476 3.57924C4.63382 3.97323 5.05194 4.18814 5.47006 4.18814C6.02755 4.22396 6.48051 3.79414 6.51535 3.22106V3.1136C6.48051 2.68379 6.30629 2.46888 5.60943 2.18233ZM3.58854 4.15232H4.18088V0.964518H3.58854V4.15232ZM0.835938 0.964518H1.70702H1.88123C2.71747 1.00034 3.37949 1.7167 3.34464 2.57633C3.34464 3.04196 3.13559 3.47178 2.78715 3.79414C2.47357 4.04486 2.09029 4.18814 1.70702 4.15232H0.835938V0.964518ZM1.60246 3.61512C1.8812 3.65094 2.19479 3.54348 2.40385 3.36439C2.61291 3.14949 2.71744 2.86294 2.71744 2.54058C2.71744 2.25404 2.61291 1.96749 2.40385 1.75258C2.19479 1.57349 1.8812 1.46604 1.60246 1.50186H1.42824V3.61512H1.60246Z" fill="black"/>
<path id="O" fill-rule="evenodd" clip-rule="evenodd" d="M10.801 0.890625C9.92995 0.890625 9.19824 1.60698 9.19824 2.53825C9.19824 3.4337 9.89511 4.18588 10.801 4.2217C11.7069 4.25751 12.4038 3.50534 12.4387 2.57407C12.4038 1.6428 11.7069 0.890625 10.801 0.890625V0.890625Z" fill="#FD6020"/>
</g>
</svg>
