<svg width="13" height="14" viewBox="0 0 13 14" fill="none" xmlns="http://www.w3.org/2000/svg">
<g id="Group 547">
<circle id="Ellipse 24" cx="6.6" cy="7.1" r="5.6" fill="#24B47E"/>
<path id="Vector (Stroke)" fill-rule="evenodd" clip-rule="evenodd" d="M6.50697 1.80691C6.20937 1.80691 5.91656 1.88183 5.65553 2.02475C5.3945 2.16768 5.17365 2.37401 5.01333 2.62474C4.87942 2.83418 4.62874 2.93742 4.38617 2.88304C4.0949 2.81774 3.79186 2.82703 3.50515 2.91007C3.21843 2.99311 2.95733 3.14719 2.74603 3.35804C2.53474 3.56889 2.38011 3.82967 2.29647 4.11622C2.21284 4.40276 2.2029 4.70578 2.2676 4.99718C2.32159 5.24041 2.21724 5.49137 2.00671 5.62461C1.75406 5.7845 1.54595 6.0057 1.40174 6.26762C1.25753 6.52955 1.18191 6.82369 1.18191 7.12268C1.18191 7.42168 1.25753 7.71582 1.40174 7.97774C1.54595 8.23967 1.75406 8.46086 2.00671 8.62076C2.21724 8.75399 2.32159 9.00496 2.2676 9.24819C2.2029 9.53959 2.21284 9.84261 2.29647 10.1292C2.38011 10.4157 2.53474 10.6765 2.74603 10.8873C2.95733 11.0982 3.21843 11.2523 3.50515 11.3353C3.79186 11.4183 4.0949 11.4276 4.38617 11.3623C4.62924 11.3078 4.88037 11.4116 5.01407 11.6218C5.17418 11.8735 5.3952 12.0807 5.65668 12.2243C5.91816 12.3678 6.21163 12.4431 6.50993 12.4431C6.80823 12.4431 7.1017 12.3678 7.36318 12.2243C7.62465 12.0807 7.84568 11.8735 8.00578 11.6218C8.13924 11.412 8.38974 11.3082 8.63248 11.3621C8.92388 11.4268 9.2269 11.4168 9.51344 11.3332C9.79998 11.2495 10.0608 11.0949 10.2716 10.8836C10.4825 10.6723 10.6366 10.4112 10.7196 10.1245C10.8026 9.83779 10.8119 9.53475 10.7466 9.24349C10.6922 9.00091 10.7955 8.75024 11.0049 8.61632C11.2556 8.45601 11.462 8.23516 11.6049 7.97412C11.7478 7.71309 11.8227 7.42028 11.8227 7.12268C11.8227 6.82509 11.7478 6.53227 11.6049 6.27124C11.462 6.01021 11.2556 5.78936 11.0049 5.62904C10.7954 5.49506 10.6921 5.2442 10.7467 5.00153C10.8123 4.70982 10.803 4.40626 10.7198 4.11909C10.6366 3.83192 10.482 3.57046 10.2706 3.35904C10.0592 3.14762 9.79774 2.99311 9.51057 2.90987C9.22339 2.82663 8.91983 2.81737 8.62812 2.88296C8.38546 2.93752 8.1346 2.83429 8.00061 2.62474C7.8403 2.37401 7.61945 2.16768 7.35842 2.02475C7.09738 1.88183 6.80457 1.80691 6.50697 1.80691ZM5.0879 0.988069C5.52296 0.749859 6.01098 0.625 6.50697 0.625C7.00297 0.625 7.49099 0.749859 7.92604 0.988069C8.24464 1.16252 8.52733 1.39364 8.76078 1.669C9.1227 1.6375 9.4885 1.67291 9.8396 1.77468C10.3182 1.91341 10.754 2.17094 11.1064 2.5233C11.4587 2.87567 11.7162 3.31143 11.855 3.79005C11.9567 4.14116 11.9922 4.50696 11.9607 4.86888C12.236 5.10233 12.4671 5.38501 12.6416 5.70362C12.8798 6.13867 13.0047 6.62669 13.0047 7.12268C13.0047 7.61868 12.8798 8.1067 12.6416 8.54175C12.4671 8.86042 12.2359 9.14316 11.9605 9.37664C11.9917 9.73785 11.9563 10.1029 11.8548 10.4533C11.7165 10.9312 11.4596 11.3663 11.1082 11.7185C10.7568 12.0706 10.3222 12.3284 9.8446 12.4678C9.49444 12.57 9.1295 12.6061 8.76826 12.5756C8.5347 12.8525 8.25147 13.0849 7.93201 13.2603C7.49621 13.4996 7.00709 13.625 6.50993 13.625C6.01277 13.625 5.52364 13.4996 5.08785 13.2603C4.76863 13.085 4.48558 12.8528 4.25212 12.5763C3.89121 12.6074 3.52648 12.572 3.17636 12.4706C2.6985 12.3322 2.26332 12.0754 1.91117 11.7239C1.55902 11.3725 1.3013 10.9379 1.16191 10.4603C1.05978 10.1104 1.02359 9.74582 1.05394 9.38488C0.775991 9.15133 0.542569 8.86779 0.36638 8.54778C0.126035 8.11125 0 7.62101 0 7.12268C0 6.62436 0.126035 6.13412 0.36638 5.69758C0.542569 5.37757 0.775991 5.09404 1.05394 4.86049C1.02359 4.49955 1.05978 4.13493 1.16191 3.78505C1.3013 3.30749 1.55902 2.87284 1.91117 2.52143C2.26332 2.17001 2.6985 1.91321 3.17636 1.77481C3.52677 1.67333 3.89181 1.63793 4.25302 1.66918C4.48649 1.39374 4.76923 1.16255 5.0879 0.988069Z" fill="#F2F2F2"/>
<path id="Vector (Stroke)_2" fill-rule="evenodd" clip-rule="evenodd" d="M8.69518 5.52465C8.92597 5.75543 8.92597 6.1296 8.69518 6.36039L6.33136 8.72421C6.10058 8.95499 5.72641 8.95499 5.49562 8.72421L4.31371 7.5423C4.08293 7.31152 4.08293 6.93734 4.31371 6.70656C4.54449 6.47578 4.91867 6.47578 5.14945 6.70656L5.91349 7.4706L7.85945 5.52465C8.09023 5.29387 8.4644 5.29387 8.69518 5.52465Z" fill="#F2F2F2"/>
</g>
</svg>
