<svg width="13" height="14" viewBox="0 0 13 14" fill="none" xmlns="http://www.w3.org/2000/svg">
<g id="Group 220">
<rect id="Rectangle 96" x="1" y="1" width="11" height="11" fill="#178AB7"/>
<path id="Vector 1 (Stroke)" fill-rule="evenodd" clip-rule="evenodd" d="M10.1399 3.72439C10.4988 4.04733 10.5279 4.60001 10.2049 4.95883L6.45641 9.12384C6.02089 9.60775 5.26865 9.62753 4.8083 9.16718L2.81851 7.17739C2.47716 6.83604 2.47716 6.2826 2.81851 5.94125C3.15987 5.59989 3.71331 5.59989 4.05466 5.94125L5.58843 7.47501L8.90551 3.78936C9.22845 3.43054 9.78113 3.40145 10.1399 3.72439Z" fill="white"/>
<path id="Vector (Stroke)" fill-rule="evenodd" clip-rule="evenodd" d="M1.95 1.55C1.59101 1.55 1.3 1.84101 1.3 2.2V11.3C1.3 11.659 1.59101 11.95 1.95 11.95H11.05C11.409 11.95 11.7 11.659 11.7 11.3V2.2C11.7 1.84101 11.409 1.55 11.05 1.55H1.95ZM0 2.2C0 1.12304 0.873045 0.25 1.95 0.25H11.05C12.127 0.25 13 1.12304 13 2.2V11.3C13 12.377 12.127 13.25 11.05 13.25H1.95C0.873045 13.25 0 12.377 0 11.3V2.2Z" fill="#F2F2F2"/>
</g>
</svg>
