<svg width="13" height="14" viewBox="0 0 13 14" fill="none" xmlns="http://www.w3.org/2000/svg">
<g id="Group 220">
<rect id="Rectangle 96" x="1" y="1" width="11" height="11" fill="#F42200"/>
<path id="Vector (Stroke)" fill-rule="evenodd" clip-rule="evenodd" d="M1.95 1.55C1.59101 1.55 1.3 1.84101 1.3 2.2V11.3C1.3 11.659 1.59101 11.95 1.95 11.95H11.05C11.409 11.95 11.7 11.659 11.7 11.3V2.2C11.7 1.84101 11.409 1.55 11.05 1.55H1.95ZM0 2.2C0 1.12304 0.873045 0.25 1.95 0.25H11.05C12.127 0.25 13 1.12304 13 2.2V11.3C13 12.377 12.127 13.25 11.05 13.25H1.95C0.873045 13.25 0 12.377 0 11.3V2.2Z" fill="#F2F2F2"/>
<path id="Vector (Stroke)_2" fill-rule="evenodd" clip-rule="evenodd" d="M4.20444 4.45181C4.45828 4.19797 4.86984 4.19797 5.12368 4.45181L8.80064 8.12876C9.05448 8.3826 9.05448 8.79416 8.80064 9.048C8.5468 9.30184 8.13524 9.30184 7.8814 9.048L4.20444 5.37105C3.9506 5.1172 3.9506 4.70565 4.20444 4.45181Z" fill="#F2F2F2"/>
<path id="Vector (Stroke)_3" fill-rule="evenodd" clip-rule="evenodd" d="M8.79556 4.45181C9.0494 4.70565 9.0494 5.1172 8.79556 5.37105L5.1186 9.048C4.86476 9.30184 4.4532 9.30184 4.19936 9.048C3.94552 8.79416 3.94552 8.3826 4.19936 8.12876L7.87632 4.45181C8.13016 4.19797 8.54172 4.19797 8.79556 4.45181Z" fill="#F2F2F2"/>
</g>
</svg>
