<svg width="9" height="10" viewBox="0 0 9 10" fill="none" xmlns="http://www.w3.org/2000/svg">
<path id="Close button" fill-rule="evenodd" clip-rule="evenodd" d="M0.223576 0.949162C0.516469 0.656269 0.991343 0.656269 1.28424 0.949162L4.50391 4.16883L7.72358 0.949162C8.01647 0.656269 8.49134 0.656269 8.78424 0.949162C9.07713 1.24206 9.07713 1.71693 8.78424 2.00982L5.56457 5.22949L8.78424 8.44916C9.07713 8.74206 9.07713 9.21693 8.78424 9.50982C8.49134 9.80272 8.01647 9.80272 7.72358 9.50982L4.50391 6.29015L1.28424 9.50982C0.991343 9.80272 0.516469 9.80272 0.223576 9.50982C-0.0693171 9.21693 -0.0693171 8.74206 0.223576 8.44916L3.44325 5.22949L0.223576 2.00982C-0.0693171 1.71693 -0.0693171 1.24206 0.223576 0.949162Z" fill="#F2F2F2"/>
</svg>
