<svg width="14" height="19" viewBox="0 0 14 19" fill="none" xmlns="http://www.w3.org/2000/svg">
<g id="Copy icon">
<path id="Vector" d="M11.8362 17.4646H12.3362V16.9646V5.10763C12.3362 3.14351 10.7359 1.53588 8.77409 1.53588H1.59353H1.09353V2.03588V13.8928C1.09353 15.857 2.69384 17.4646 4.6556 17.4646H11.8362ZM0.659603 1H8.77409H8.7894C11.0533 1 12.8825 2.83273 12.8825 5.10763V17.8861C12.8825 17.9185 12.88 17.9539 12.8753 17.9963C12.8393 17.999 12.8044 18.0005 12.7701 18.0005H4.6556C2.39172 18.0005 0.5625 16.1677 0.5625 13.8928V1.11435C0.5625 1.08171 0.564996 1.04604 0.569844 1.0032C0.599887 1.00111 0.629488 1 0.659603 1Z" stroke="#F2F2F2"/>
</g>
</svg>
