<svg width="13" height="14" viewBox="0 0 13 14" fill="none" xmlns="http://www.w3.org/2000/svg">
<g id="Delete">
<path id="Vector (Stroke)" fill-rule="evenodd" clip-rule="evenodd" d="M1.95 2.16719C1.59101 2.16719 1.3 2.4582 1.3 2.81719V11.9172C1.3 12.2762 1.59101 12.5672 1.95 12.5672H11.05C11.409 12.5672 11.7 12.2762 11.7 11.9172V2.81719C11.7 2.4582 11.409 2.16719 11.05 2.16719H1.95ZM0 2.81719C0 1.74023 0.873045 0.867188 1.95 0.867188H11.05C12.127 0.867188 13 1.74023 13 2.81719V11.9172C13 12.9941 12.127 13.8672 11.05 13.8672H1.95C0.873045 13.8672 0 12.9941 0 11.9172V2.81719Z" fill="#F2F2F2"/>
<path id="Vector (Stroke)_2" fill-rule="evenodd" clip-rule="evenodd" d="M8.90806 4.95601C9.1619 5.20985 9.1619 5.6214 8.90806 5.87524L5.00806 9.77524C4.75422 10.0291 4.34266 10.0291 4.08882 9.77524C3.83498 9.5214 3.83498 9.10985 4.08882 8.85601L7.98882 4.95601C8.24266 4.70216 8.65422 4.70216 8.90806 4.95601Z" fill="#F2F2F2"/>
<path id="Vector (Stroke)_3" fill-rule="evenodd" clip-rule="evenodd" d="M4.08882 4.95601C4.34266 4.70216 4.75422 4.70216 5.00806 4.95601L8.90806 8.85601C9.1619 9.10985 9.1619 9.5214 8.90806 9.77524C8.65422 10.0291 8.24266 10.0291 7.98882 9.77524L4.08882 5.87524C3.83498 5.6214 3.83498 5.20985 4.08882 4.95601Z" fill="#F2F2F2"/>
</g>
</svg>
