<svg width="19" height="19" viewBox="0 0 19 19" fill="none" xmlns="http://www.w3.org/2000/svg">
<g id="Delete">
<path id="Vector (Stroke)" fill-rule="evenodd" clip-rule="evenodd" d="M2.89922 2.70234C2.40216 2.70234 1.99922 3.10529 1.99922 3.60234V16.2023C1.99922 16.6994 2.40216 17.1023 2.89922 17.1023H15.4992C15.9963 17.1023 16.3992 16.6994 16.3992 16.2023V3.60234C16.3992 3.10529 15.9963 2.70234 15.4992 2.70234H2.89922ZM0.199219 3.60234C0.199219 2.11117 1.40805 0.902344 2.89922 0.902344H15.4992C16.9904 0.902344 18.1992 2.11117 18.1992 3.60234V16.2023C18.1992 17.6935 16.9904 18.9023 15.4992 18.9023H2.89922C1.40805 18.9023 0.199219 17.6935 0.199219 16.2023V3.60234Z" fill="#F42200"/>
<path id="Vector (Stroke)_2" fill-rule="evenodd" clip-rule="evenodd" d="M12.536 6.56439C12.8875 6.91586 12.8875 7.48571 12.536 7.83718L7.13601 13.2372C6.78453 13.5886 6.21469 13.5886 5.86321 13.2372C5.51174 12.8857 5.51174 12.3159 5.86321 11.9644L11.2632 6.56439C11.6147 6.21291 12.1845 6.21291 12.536 6.56439Z" fill="#F42200"/>
<path id="Vector (Stroke)_3" fill-rule="evenodd" clip-rule="evenodd" d="M5.86321 6.56439C6.21469 6.21291 6.78453 6.21291 7.13601 6.56439L12.536 11.9644C12.8875 12.3159 12.8875 12.8857 12.536 13.2372C12.1845 13.5886 11.6147 13.5886 11.2632 13.2372L5.86321 7.83718C5.51174 7.48571 5.51174 6.91586 5.86321 6.56439Z" fill="#F42200"/>
</g>
</svg>
