<svg width="22" height="22" viewBox="0 0 22 22" fill="none" xmlns="http://www.w3.org/2000/svg">
<g id="Diamond icon" clip-path="url(#clip0_1308_2630)">
<path id="Vector" d="M1.70675 9.29675C1.4827 9.52057 1.30495 9.78635 1.18369 10.0789C1.06242 10.3715 1 10.6851 1 11.0017C1 11.3184 1.06242 11.632 1.18369 11.9246C1.30495 12.2171 1.4827 12.4829 1.70675 12.7067L9.29675 20.2967C9.52057 20.5208 9.78635 20.6985 10.0789 20.8198C10.3715 20.9411 10.6851 21.0035 11.0017 21.0035C11.3184 21.0035 11.632 20.9411 11.9246 20.8198C12.2171 20.6985 12.4829 20.5208 12.7067 20.2967L20.2967 12.7067C20.5208 12.4829 20.6985 12.2171 20.8198 11.9246C20.9411 11.632 21.0035 11.3184 21.0035 11.0017C21.0035 10.6851 20.9411 10.3715 20.8198 10.0789C20.6985 9.78635 20.5208 9.52057 20.2967 9.29675L12.7067 1.70675C12.4829 1.4827 12.2171 1.30495 11.9246 1.18369C11.632 1.06242 11.3184 1 11.0017 1C10.6851 1 10.3715 1.06242 10.0789 1.18369C9.78635 1.30495 9.52057 1.4827 9.29675 1.70675L1.70675 9.29675Z" stroke="#F2F2F2" stroke-width="2" stroke-linecap="round" stroke-linejoin="round"/>
</g>
<defs>
<clipPath id="clip0_1308_2630">
<rect width="22" height="22" fill="white"/>
</clipPath>
</defs>
</svg>
