<svg width="22" height="22" viewBox="0 0 22 22" fill="none" xmlns="http://www.w3.org/2000/svg">
<g id="Diamond icon">
<path id="Vector (Stroke)" fill-rule="evenodd" clip-rule="evenodd" d="M4.16795 0.4665C4.35342 0.175057 4.66565 0 5 0H17C17.3344 0 17.6466 0.175057 17.8321 0.4665L21.8321 6.75215C22.0697 7.12562 22.0539 7.61622 21.7926 7.97199L11.7926 21.5909C11.6033 21.8487 11.3105 21.9998 11 21.9998C10.6895 21.9998 10.3967 21.8487 10.2074 21.5909L0.207377 7.97199C-0.0538611 7.61622 -0.0697174 7.12562 0.167951 6.75215L4.16795 0.4665ZM5.53518 2.09522L2.22961 7.28964L11 19.234L19.7704 7.28964L16.4648 2.09522H5.53518Z" fill="#178AB7"/>
<path id="Vector (Stroke)_2" fill-rule="evenodd" clip-rule="evenodd" d="M11 1.07052C10.997 1.22087 10.9629 1.3729 10.8944 1.51634L8.07361 7.42657L11 17.3901L13.9264 7.42657L11.1056 1.51634C11.0371 1.3729 11.003 1.22087 11 1.07052ZM11 1.02682C10.9925 0.65041 10.791 0.290897 10.4472 0.110828C9.95324 -0.14792 9.35256 0.0618371 9.10557 0.579333L6.10557 6.86498C5.99056 7.10595 5.96859 7.38408 6.04422 7.64157L10.0442 21.2605C10.1733 21.7 10.561 22 11 22C11.439 22 11.8267 21.7 11.9558 21.2605L15.9558 7.64157C16.0314 7.38408 16.0094 7.10595 15.8944 6.86498L12.8944 0.579333C12.6474 0.0618371 12.0468 -0.14792 11.5528 0.110828C11.209 0.290897 11.0075 0.65041 11 1.02682Z" fill="#178AB7"/>
<path id="Vector (Stroke)_3" fill-rule="evenodd" clip-rule="evenodd" d="M0 7.32886C0 6.75028 0.447715 6.28125 1 6.28125H21C21.5523 6.28125 22 6.75028 22 7.32886C22 7.90744 21.5523 8.37647 21 8.37647H1C0.447715 8.37647 0 7.90744 0 7.32886Z" fill="#178AB7"/>
</g>
</svg>
