<svg width="33" height="33" viewBox="0 0 33 33" fill="none" xmlns="http://www.w3.org/2000/svg">
<path fill-rule="evenodd" clip-rule="evenodd" d="M16.5 0C25.6127 0 33 7.3873 33 16.5C33 25.6127 25.6127 33 16.5 33C7.3873 33 0 25.6127 0 16.5C0 7.3873 7.3873 0 16.5 0ZM23.2632 10.3525C21.9826 9.76678 20.6309 9.35114 19.2424 9.11619C19.0532 9.45601 18.8818 9.80545 18.729 10.1631C17.9904 10.0517 17.2446 9.99558 16.4977 9.99533C15.752 9.99533 15.0027 10.052 14.2662 10.1616C14.1157 9.80654 13.9411 9.4545 13.7515 9.11599C12.3629 9.35323 11.0111 9.76968 9.72978 10.3549C7.18498 14.1195 6.49533 17.79 6.84015 21.4084C8.33025 22.5091 9.998 23.3462 11.7709 23.8833C12.1686 23.3466 12.5247 22.7752 12.8271 22.1806C12.2501 21.9656 11.6934 21.6999 11.1633 21.3866C11.3028 21.2855 11.4393 21.1813 11.571 21.0801C13.1122 21.804 14.7962 22.1815 16.4999 22.1815C18.2038 22.1815 19.8877 21.804 21.429 21.08C21.5623 21.1888 21.6988 21.2931 21.8367 21.3865C21.3056 21.7004 20.7478 21.9668 20.1699 22.1826C20.4734 22.7785 20.8267 23.3477 21.2261 23.884C23.0006 23.3485 24.6697 22.5115 26.1602 21.4095L26.1598 21.41C26.5644 17.2138 25.4685 13.577 23.2632 10.3525ZM13.2632 19.1832C12.3023 19.1832 11.5084 18.3111 11.5084 17.2383C11.5084 16.1655 12.2746 15.2858 13.2601 15.2858C14.2456 15.2858 15.0332 16.1655 15.0164 17.2383C14.9995 18.3111 14.2425 19.1832 13.2632 19.1832ZM19.7368 19.1832C18.7743 19.1832 17.9835 18.3111 17.9835 17.2383C17.9835 16.1655 18.7498 15.2858 19.7368 15.2858C20.7237 15.2858 21.5054 16.1655 21.4885 17.2383C21.4717 18.3111 20.7161 19.1832 19.7368 19.1832Z" fill="white"/>
</svg>
