<svg width="5" height="19" viewBox="0 0 5 19" fill="none" xmlns="http://www.w3.org/2000/svg">
<path d="M0.2 9.50156C0.2 10.827 1.27452 11.9016 2.6 11.9016C3.92548 11.9016 5 10.827 5 9.50156C5 8.17608 3.92548 7.10156 2.6 7.10156C1.27452 7.10156 0.2 8.17608 0.2 9.50156Z" fill="#F2F2F2"/>
<path d="M0.2 16.3023C0.2 17.6278 1.27452 18.7023 2.6 18.7023C3.92548 18.7023 5 17.6278 5 16.3023C5 14.9769 3.92548 13.9023 2.6 13.9023C1.27452 13.9023 0.2 14.9769 0.2 16.3023Z" fill="#F2F2F2"/>
<path d="M0.2 2.70078C0.2 4.02626 1.27452 5.10078 2.6 5.10078C3.92548 5.10078 5 4.02626 5 2.70078C5 1.3753 3.92548 0.300781 2.6 0.300781C1.27452 0.300781 0.2 1.3753 0.2 2.70078Z" fill="#F2F2F2"/>
</svg>
