<svg width="19" height="19" viewBox="0 0 19 19" fill="none" xmlns="http://www.w3.org/2000/svg">
<g id="Group 88">
<path id="Vector (Stroke)" fill-rule="evenodd" clip-rule="evenodd" d="M1.09922 11.7031C1.59627 11.7031 1.99922 12.1061 1.99922 12.6031V16.2031C1.99922 16.4418 2.09404 16.6707 2.26282 16.8395C2.43161 17.0083 2.66052 17.1031 2.89922 17.1031H15.4992C15.7379 17.1031 15.9668 17.0083 16.1356 16.8395C16.3044 16.6707 16.3992 16.4418 16.3992 16.2031V12.6031C16.3992 12.1061 16.8022 11.7031 17.2992 11.7031C17.7963 11.7031 18.1992 12.1061 18.1992 12.6031V16.2031C18.1992 16.9192 17.9148 17.606 17.4084 18.1123C16.9021 18.6187 16.2153 18.9031 15.4992 18.9031H2.89922C2.18313 18.9031 1.49638 18.6187 0.99003 18.1123C0.483682 17.606 0.199219 16.9192 0.199219 16.2031V12.6031C0.199219 12.1061 0.602162 11.7031 1.09922 11.7031Z" fill="#F2F2F2"/>
<path id="Vector (Stroke)_2" fill-rule="evenodd" clip-rule="evenodd" d="M4.06243 7.46673C4.4139 7.11526 4.98375 7.11526 5.33522 7.46673L9.19883 11.3303L13.0624 7.46673C13.4139 7.11526 13.9838 7.11526 14.3352 7.46673C14.6867 7.8182 14.6867 8.38805 14.3352 8.73952L9.83522 13.2395C9.48375 13.591 8.9139 13.591 8.56243 13.2395L4.06243 8.73952C3.71096 8.38805 3.71096 7.8182 4.06243 7.46673Z" fill="#F2F2F2"/>
<path id="Vector (Stroke)_3" fill-rule="evenodd" clip-rule="evenodd" d="M9.19883 0.902344C9.69588 0.902344 10.0988 1.30529 10.0988 1.80234V12.6023C10.0988 13.0994 9.69588 13.5023 9.19883 13.5023C8.70177 13.5023 8.29883 13.0994 8.29883 12.6023V1.80234C8.29883 1.30529 8.70177 0.902344 9.19883 0.902344Z" fill="#F2F2F2"/>
</g>
</svg>
