<svg width="40" height="40" viewBox="0 0 40 40" fill="none" xmlns="http://www.w3.org/2000/svg">
<g id="Group 350">
<path id="Vector" d="M20.0003 12.8594L12.8574 17.1451L20.0003 21.4308L27.1431 17.1451L20.0003 12.8594Z" fill="#F2F2F2"/>
<path id="Vector_2" d="M20 0C8.95429 0 0 8.95429 0 20C0 31.0457 8.95429 40 20 40C31.0457 40 40 31.0457 40 20C40 8.95429 31.0457 0 20 0ZM20 32.8571L12.8571 28.5714L20 24.2857L27.1429 28.5714L20 32.8571ZM27.1429 25.7143L20 21.4286L12.8571 25.7143L5.71429 21.4286L12.8571 17.1429L5.71429 12.8571L12.8571 8.57143L20 12.8571L27.1429 8.57143L34.2857 12.8571L27.1429 17.1429L34.2857 21.4286L27.1429 25.7143Z" fill="#F2F2F2"/>
</g>
</svg>
