<svg width="13" height="14" viewBox="0 0 13 14" fill="none" xmlns="http://www.w3.org/2000/svg">
<g id="Group 181">
<path id="Vector (Stroke)" fill-rule="evenodd" clip-rule="evenodd" d="M5.84277 12.7858C5.84277 12.4079 6.1338 12.1016 6.49281 12.1016H12.3431C12.7021 12.1016 12.9931 12.4079 12.9931 12.7858C12.9931 13.1636 12.7021 13.47 12.3431 13.47H6.49281C6.1338 13.47 5.84277 13.1636 5.84277 12.7858Z" fill="#4D4D4D"/>
<path id="Vector (Stroke)_2" fill-rule="evenodd" clip-rule="evenodd" d="M10.3111 1.83714C10.1176 1.83714 9.93192 1.91808 9.79506 2.06214L1.98753 10.28C1.91029 10.3613 1.85361 10.4618 1.82298 10.5722C1.82297 10.5722 1.82299 10.5721 1.82298 10.5722L1.44432 11.9381L2.74208 11.5396C2.84707 11.5074 2.94297 11.4478 3.0203 11.3664L10.8272 3.14852C10.964 3.00446 11.0409 2.80905 11.0409 2.60532C11.0409 2.40158 10.964 2.2062 10.8272 2.06214C10.6903 1.91808 10.5047 1.83714 10.3111 1.83714ZM8.87578 1.09454C9.25645 0.693852 9.77276 0.46875 10.3111 0.46875C10.8495 0.46875 11.3658 0.693852 11.7465 1.09454C12.1271 1.49522 12.341 2.03866 12.341 2.60532C12.341 3.17197 12.1271 3.71541 11.7465 4.1161L3.93959 12.334C3.70771 12.578 3.42106 12.7566 3.10623 12.8532C3.10612 12.8532 3.10634 12.8532 3.10623 12.8532L1.23934 13.4266C1.07153 13.4781 0.893594 13.4812 0.72427 13.4355C0.55495 13.3899 0.400398 13.2971 0.276796 13.167C0.153197 13.0369 0.0650969 12.8743 0.0217166 12.696C-0.021664 12.5178 -0.0187295 12.3306 0.0302128 12.154L0.574959 10.1889C0.666812 9.85779 0.836489 9.55627 1.06824 9.31243C1.0682 9.31247 1.06829 9.31238 1.06824 9.31243L8.87578 1.09454Z" fill="#4D4D4D"/>
<path id="Vector (Stroke)_3" fill-rule="evenodd" clip-rule="evenodd" d="M7.97848 2.03633C8.23233 1.76914 8.64391 1.76914 8.89776 2.03633L10.8479 4.08893C11.1017 4.35612 11.1017 4.78933 10.8479 5.05653C10.594 5.32372 10.1824 5.32372 9.92857 5.05653L7.97848 3.00393C7.72462 2.73674 7.72462 2.30353 7.97848 2.03633Z" fill="#4D4D4D"/>
</g>
</svg>
