<svg width="13" height="14" viewBox="0 0 13 14" fill="none" xmlns="http://www.w3.org/2000/svg">
<g id="Group 237">
<path id="Vector (Stroke)" fill-rule="evenodd" clip-rule="evenodd" d="M0.570165 0.811376C0.935861 0.44568 1.43185 0.240234 1.94902 0.240234H6.49902C6.85801 0.240234 7.14902 0.531249 7.14902 0.890234C7.14902 1.24922 6.85801 1.54023 6.49902 1.54023H1.94902C1.77663 1.54023 1.6113 1.60872 1.4894 1.73061C1.36751 1.85251 1.29902 2.01784 1.29902 2.19023V11.2902C1.29902 11.4626 1.36751 11.628 1.4894 11.7499C1.6113 11.8718 1.77663 11.9402 1.94902 11.9402H11.049C11.2214 11.9402 11.3867 11.8718 11.5086 11.7499C11.6305 11.628 11.699 11.4626 11.699 11.2902V6.74023C11.699 6.38125 11.99 6.09023 12.349 6.09023C12.708 6.09023 12.999 6.38125 12.999 6.74023V11.2902C12.999 11.8074 12.7936 12.3034 12.4279 12.6691C12.0622 13.0348 11.5662 13.2402 11.049 13.2402H1.94902C1.43185 13.2402 0.935861 13.0348 0.570165 12.6691C0.204469 12.3034 -0.000976562 11.8074 -0.000976562 11.2902V2.19023C-0.000976562 1.67306 0.204469 1.17707 0.570165 0.811376Z" fill="#4D4D4D"/>
<path id="Vector (Stroke)_2" fill-rule="evenodd" clip-rule="evenodd" d="M10.4526 1.75567C10.4526 1.75567 10.4527 1.75566 10.4526 1.75567L4.59423 7.61474C4.51712 7.69171 4.46018 7.78724 4.42944 7.89176C4.42941 7.89186 4.42947 7.89166 4.42944 7.89176L4.05019 9.18888L5.34772 8.80951C5.45234 8.77897 5.5478 8.72254 5.62494 8.64555M5.62494 8.64555L11.4834 2.78645C11.6201 2.64976 11.6969 2.46435 11.6969 2.27105C11.6969 2.07774 11.6201 1.89235 11.4834 1.75567C11.3467 1.61898 11.1613 1.54219 10.968 1.54219C10.7747 1.54219 10.5893 1.61899 10.4526 1.75567M9.53341 0.836426C9.9139 0.455941 10.4299 0.242188 10.968 0.242188C11.5061 0.242188 12.0222 0.455941 12.4026 0.836426C12.7831 1.21691 12.9969 1.73296 12.9969 2.27105C12.9969 2.80912 12.7831 3.32516 12.4027 3.70564C12.4027 3.70565 12.4027 3.70563 12.4027 3.70564L6.54423 9.56474C6.31271 9.79606 6.02647 9.9656 5.71233 10.0573L3.84509 10.6033C3.67729 10.6522 3.49902 10.6553 3.3297 10.6119C3.16039 10.5685 3.00585 10.4804 2.88225 10.3568C2.75866 10.2332 2.67056 10.0787 2.62718 9.90937C2.58381 9.74006 2.58674 9.56219 2.63568 9.3944L3.18201 7.52583C3.27415 7.212 3.44375 6.9264 3.67519 6.69529C3.67514 6.69535 3.67525 6.69524 3.67519 6.69529L9.53341 0.836426Z" fill="#4D4D4D"/>
</g>
</svg>
