<svg width="13" height="14" viewBox="0 0 13 14" fill="none" xmlns="http://www.w3.org/2000/svg">
<g id="Group 266">
<path id="Vector (Stroke)" fill-rule="evenodd" clip-rule="evenodd" d="M9.4164 3.87698C8.33211 3.24073 7.06939 2.97684 5.82105 3.1256C5.49699 3.16422 5.20298 2.93283 5.16437 2.60877C5.12575 2.28471 5.35714 1.99071 5.6812 1.95209C7.18577 1.77279 8.70767 2.09084 10.0145 2.85768C11.3213 3.62452 12.3413 4.79801 12.9186 6.19893C12.9213 6.20539 12.9238 6.21189 12.9262 6.21844C13.0247 6.48377 13.0247 6.77565 12.9262 7.04098C12.9238 7.04759 12.9212 7.05415 12.9185 7.06066C12.6812 7.63615 12.3675 8.17709 11.9859 8.66893C11.7858 8.92678 11.4146 8.97363 11.1568 8.77358C10.8989 8.57353 10.8521 8.20233 11.0521 7.94449C11.3644 7.54199 11.6219 7.09986 11.8178 6.6297C11.3374 5.47597 10.4946 4.50966 9.4164 3.87698Z" fill="#F2F2F2"/>
<path id="Vector (Stroke)_2" fill-rule="evenodd" clip-rule="evenodd" d="M5.63576 4.97349C5.8705 5.20021 5.87701 5.5743 5.65029 5.80904C5.43501 6.03193 5.31589 6.33046 5.31858 6.64033C5.32127 6.9502 5.44556 7.24661 5.66468 7.46573C5.8838 7.68485 6.18022 7.80914 6.49009 7.81183C6.79996 7.81453 7.09848 7.69541 7.32138 7.48013C7.55612 7.25341 7.9302 7.25991 8.15692 7.49465C8.38364 7.72939 8.37714 8.10348 8.1424 8.3302C7.69661 8.76075 7.09955 8.99899 6.47982 8.99361C5.86008 8.98822 5.26725 8.73964 4.82901 8.3014C4.39077 7.86317 4.14219 7.27034 4.13681 6.6506C4.13142 6.03086 4.36966 5.4338 4.80022 4.98802C5.02694 4.75328 5.40103 4.74677 5.63576 4.97349Z" fill="#F2F2F2"/>
<path id="Vector (Stroke)_3" fill-rule="evenodd" clip-rule="evenodd" d="M3.76299 3.08305C3.92973 3.36359 3.83747 3.72618 3.55692 3.89291C2.49149 4.52612 1.65882 5.48592 1.18227 6.62963C1.4973 7.38568 1.96994 8.06595 2.56876 8.625C3.17276 9.18889 3.89098 9.61626 4.6747 9.8781C5.45842 10.14 6.28929 10.2302 7.11094 10.1426C7.93259 10.055 8.7258 9.79176 9.43673 9.37063C9.71751 9.20431 10.08 9.29709 10.2463 9.57788C10.4126 9.85866 10.3198 10.2211 10.039 10.3874C9.18228 10.895 8.22637 11.2122 7.23617 11.3178C6.24598 11.4233 5.24467 11.3146 4.30019 10.999C3.35571 10.6835 2.49016 10.1684 1.76227 9.48887C1.03437 8.80931 0.461174 7.98113 0.0815572 7.06053C0.0788783 7.05403 0.0763155 7.04749 0.0738701 7.0409C-0.0246234 6.77556 -0.0246234 6.48369 0.0738701 6.21836C0.0763158 6.21177 0.0788788 6.20522 0.0815579 6.19873C0.654213 4.81 1.66181 3.64444 2.95313 2.87698C3.23367 2.71024 3.59626 2.80251 3.76299 3.08305Z" fill="#F2F2F2"/>
<path id="Vector (Stroke)_4" fill-rule="evenodd" clip-rule="evenodd" d="M0.173073 0.302956C0.403838 0.0721917 0.777981 0.0721917 1.00874 0.302956L12.8269 12.1211C13.0577 12.3519 13.0577 12.726 12.8269 12.9568C12.5962 13.1876 12.222 13.1876 11.9913 12.9568L0.173073 1.13863C-0.0576911 0.907863 -0.0576911 0.53372 0.173073 0.302956Z" fill="#F2F2F2"/>
</g>
</svg>
