<svg width="40" height="41" viewBox="0 0 40 41" fill="none" xmlns="http://www.w3.org/2000/svg">
<g id="facebook-fill 1" clip-path="url(#clip0_1294_1864)">
<path id="Vector" fill-rule="evenodd" clip-rule="evenodd" d="M0 20.4643C0 30.4143 7.21667 38.681 16.6667 40.3477V25.8977H11.6667V20.3477H16.6667V15.8977C16.6667 10.8977 19.8833 8.11432 24.45 8.11432C25.9 8.11432 27.45 8.33099 28.9 8.56432V13.681H26.35C23.9 13.681 23.35 14.8977 23.35 16.4643V20.3477H28.6833L27.8 25.8977H23.35V40.3477C32.8 38.6643 40.0167 30.3977 40.0167 20.4643C40 9.39766 31 0.347656 20 0.347656C9 0.347656 0 9.39766 0 20.4643Z" fill="#F2F2F2"/>
</g>
<defs>
<clipPath id="clip0_1294_1864">
<rect width="40" height="40" fill="white" transform="translate(0 0.347656)"/>
</clipPath>
</defs>
</svg>
