<svg width="29" height="29" viewBox="0 0 29 29" fill="none" xmlns="http://www.w3.org/2000/svg">
<g id="Full Screen icon">
<path id="Vector (Stroke)" fill-rule="evenodd" clip-rule="evenodd" d="M1.27409 1.27409C2.08987 0.458302 3.19631 0 4.35 0H8.7C9.50081 0 10.15 0.649187 10.15 1.45C10.15 2.25081 9.50081 2.9 8.7 2.9H4.35C3.96544 2.9 3.59662 3.05277 3.3247 3.3247C3.05277 3.59662 2.9 3.96544 2.9 4.35V8.7C2.9 9.50081 2.25081 10.15 1.45 10.15C0.649187 10.15 0 9.50081 0 8.7V4.35C0 3.19631 0.458302 2.08987 1.27409 1.27409Z" fill="#F2F2F2"/>
<path id="Vector (Stroke)_2" fill-rule="evenodd" clip-rule="evenodd" d="M18.8516 1.45C18.8516 0.649187 19.5007 0 20.3016 0H24.6516C25.8053 0 26.9117 0.458302 27.7275 1.27409C28.5433 2.08987 29.0016 3.19631 29.0016 4.35V8.7C29.0016 9.50081 28.3524 10.15 27.5516 10.15C26.7508 10.15 26.1016 9.50081 26.1016 8.7V4.35C26.1016 3.96544 25.9488 3.59662 25.6769 3.3247C25.4049 3.05277 25.0361 2.9 24.6516 2.9H20.3016C19.5007 2.9 18.8516 2.25081 18.8516 1.45Z" fill="#F2F2F2"/>
<path id="Vector (Stroke)_3" fill-rule="evenodd" clip-rule="evenodd" d="M1.45 18.8516C2.25081 18.8516 2.9 19.5007 2.9 20.3016V24.6516C2.9 25.0361 3.05277 25.4049 3.3247 25.6769C3.59662 25.9488 3.96544 26.1016 4.35 26.1016H8.7C9.50081 26.1016 10.15 26.7508 10.15 27.5516C10.15 28.3524 9.50081 29.0016 8.7 29.0016H4.35C3.19631 29.0016 2.08987 28.5433 1.27409 27.7275C0.458302 26.9117 0 25.8053 0 24.6516V20.3016C0 19.5007 0.649187 18.8516 1.45 18.8516Z" fill="#F2F2F2"/>
<path id="Vector (Stroke)_4" fill-rule="evenodd" clip-rule="evenodd" d="M27.5516 18.8516C28.3524 18.8516 29.0016 19.5007 29.0016 20.3016V24.6516C29.0016 25.8053 28.5433 26.9117 27.7275 27.7275C26.9117 28.5433 25.8053 29.0016 24.6516 29.0016H20.3016C19.5007 29.0016 18.8516 28.3524 18.8516 27.5516C18.8516 26.7508 19.5007 26.1016 20.3016 26.1016H24.6516C25.0361 26.1016 25.4049 25.9488 25.6769 25.6769C25.9488 25.4049 26.1016 25.0361 26.1016 24.6516V20.3016C26.1016 19.5007 26.7508 18.8516 27.5516 18.8516Z" fill="#F2F2F2"/>
</g>
</svg>
