<svg width="29" height="30" viewBox="0 0 29 30" fill="none" xmlns="http://www.w3.org/2000/svg">
<g id="Group 192">
<ellipse id="Ellipse 13" cx="14.5" cy="26.3568" rx="14.5" ry="3.02083" fill="#A6A6A6"/>
<path id="Vector (Stroke)" fill-rule="evenodd" clip-rule="evenodd" d="M14.5 2.79167C12.2567 2.79167 10.1053 3.68281 8.51906 5.26906C6.93281 6.8553 6.04167 9.00671 6.04167 11.25C6.04167 13.8592 7.51182 16.6714 9.42227 19.1815C11.2689 21.6078 13.388 23.5726 14.5 24.5376C15.612 23.5726 17.7311 21.6078 19.5777 19.1815C21.4882 16.6714 22.9583 13.8592 22.9583 11.25C22.9583 9.00671 22.0672 6.8553 20.4809 5.26906C18.8947 3.68281 16.7433 2.79167 14.5 2.79167ZM6.81021 3.56021C8.84967 1.52076 11.6158 0.375 14.5 0.375C17.3842 0.375 20.1503 1.52076 22.1898 3.56021C24.2292 5.59967 25.375 8.36577 25.375 11.25C25.375 14.674 23.4987 18.0201 21.5008 20.6451C19.4749 23.3069 17.1701 25.4251 16.0159 26.4217C15.9953 26.4395 15.9741 26.4565 15.9524 26.4729C15.5337 26.7878 15.0239 26.958 14.5 26.958C13.9761 26.958 13.4663 26.7878 13.0476 26.4729C13.0259 26.4565 13.0047 26.4395 12.9841 26.4217C11.8299 25.4251 9.52514 23.3069 7.49923 20.6451C5.50133 18.0201 3.625 14.674 3.625 11.25C3.625 8.36577 4.77076 5.59967 6.81021 3.56021Z" fill="#F2F2F2"/>
<path id="Vector (Stroke)_2" fill-rule="evenodd" clip-rule="evenodd" d="M14.5052 8.83854C13.1705 8.83854 12.0885 9.92052 12.0885 11.2552C12.0885 12.5899 13.1705 13.6719 14.5052 13.6719C15.8399 13.6719 16.9219 12.5899 16.9219 11.2552C16.9219 9.92052 15.8399 8.83854 14.5052 8.83854ZM9.67188 11.2552C9.67188 8.58583 11.8358 6.42188 14.5052 6.42188C17.1746 6.42188 19.3385 8.58583 19.3385 11.2552C19.3385 13.9246 17.1746 16.0885 14.5052 16.0885C11.8358 16.0885 9.67188 13.9246 9.67188 11.2552Z" fill="#F2F2F2"/>
</g>
</svg>
