<svg width="18" height="17" viewBox="0 0 18 17" fill="none" xmlns="http://www.w3.org/2000/svg">
<path id="Vector (Stroke)" fill-rule="evenodd" clip-rule="evenodd" d="M7.9512 2.74576C5.21005 2.74576 2.98795 4.96787 2.98795 7.70898C2.98795 10.4501 5.21006 12.6722 7.9512 12.6722C9.27667 12.6722 10.4808 12.1526 11.371 11.306C11.3974 11.274 11.4255 11.243 11.4554 11.2131C11.4853 11.1833 11.5162 11.1551 11.5482 11.1288C12.3948 10.2386 12.9144 9.03447 12.9144 7.70898C12.9144 4.96786 10.6923 2.74576 7.9512 2.74576ZM14.1287 12.0554C14.9951 10.8263 15.5039 9.32706 15.5039 7.70898C15.5039 3.53773 12.1224 0.15625 7.9512 0.15625C3.77991 0.15625 0.398438 3.53772 0.398438 7.70898C0.398438 11.8803 3.77991 15.2617 7.9512 15.2617C9.56928 15.2617 11.0685 14.7529 12.2976 13.8865L14.8581 16.447C15.3637 16.9527 16.1835 16.9527 16.6892 16.447C17.1948 15.9414 17.1948 15.1216 16.6892 14.616L14.1287 12.0554Z" fill="#F2F2F2"/>
</svg>
