<svg width="18" height="18" viewBox="0 0 18 18" fill="none" xmlns="http://www.w3.org/2000/svg">
<g id="Group 485">
<path id="Vector (Stroke)" fill-rule="evenodd" clip-rule="evenodd" d="M9 1.63636C4.93318 1.63636 1.63636 4.93318 1.63636 9C1.63636 13.0668 4.93318 16.3636 9 16.3636C13.0668 16.3636 16.3636 13.0668 16.3636 9C16.3636 4.93318 13.0668 1.63636 9 1.63636ZM0 9C0 4.02944 4.02944 0 9 0C13.9706 0 18 4.02944 18 9C18 13.9706 13.9706 18 9 18C4.02944 18 0 13.9706 0 9Z" fill="#4D4D4D"/>
<path id="Vector (Stroke)_2" fill-rule="evenodd" clip-rule="evenodd" d="M9.00107 0C9.22498 0 9.43912 0.0917713 9.59354 0.253918C11.8393 2.612 13.092 5.74361 13.092 9C13.092 12.2564 11.8393 15.388 9.59354 17.7461C9.43912 17.9082 9.22498 18 9.00107 18C8.77715 18 8.56301 17.9082 8.40859 17.7461C6.1628 15.388 4.91016 12.2564 4.91016 9C4.91016 5.74361 6.1628 2.612 8.40859 0.253918C8.56301 0.0917713 8.77715 0 9.00107 0ZM9.00107 2.05746C7.41854 4.0156 6.54652 6.46437 6.54652 9C6.54652 11.5356 7.41854 13.9844 9.00106 15.9425C10.5836 13.9844 11.4556 11.5356 11.4556 9C11.4556 6.46437 10.5836 4.0156 9.00107 2.05746Z" fill="#4D4D4D"/>
<path id="Vector (Stroke)_3" fill-rule="evenodd" clip-rule="evenodd" d="M0 8.99787C0 8.546 0.366312 8.17969 0.818182 8.17969H17.1818C17.6337 8.17969 18 8.546 18 8.99787C18 9.44974 17.6337 9.81605 17.1818 9.81605H0.818182C0.366312 9.81605 0 9.44974 0 8.99787Z" fill="#4D4D4D"/>
</g>
</svg>
