<svg width="12" height="12" viewBox="0 0 12 12" fill="none" xmlns="http://www.w3.org/2000/svg">
<g id="Information icon">
<path id="Vector" d="M6.52651 8.82813V5.61823C6.52651 5.29945 6.26808 5.04102 5.94929 5.04102C5.6305 5.04102 5.37207 5.29945 5.37207 5.61823V8.82813C5.37207 9.14692 5.6305 9.40535 5.94929 9.40535C6.26808 9.40535 6.52651 9.14692 6.52651 8.82813Z" fill="#4D4D4D"/>
<path id="Vector_2" d="M5.9446 4.23294C6.26079 4.23294 6.51712 3.97661 6.51712 3.66042C6.51712 3.34422 6.26079 3.08789 5.9446 3.08789C5.6284 3.08789 5.37207 3.34422 5.37207 3.66042C5.37207 3.97661 5.6284 4.23294 5.9446 4.23294Z" fill="#4D4D4D"/>
<path id="Vector_3" d="M5.94482 11.7422C2.91325 11.7422 0.444824 9.27376 0.444824 6.24219C0.444824 3.21062 2.91325 0.742188 5.94482 0.742188C8.97639 0.742188 11.4448 3.21062 11.4448 6.24219C11.4448 9.27376 8.97639 11.7422 5.94482 11.7422ZM5.94482 1.60567C3.39192 1.60567 1.30831 3.68929 1.30831 6.24219C1.30831 8.79509 3.39192 10.8787 5.94482 10.8787C8.49772 10.8787 10.5813 8.79509 10.5813 6.24219C10.5813 3.68929 8.49772 1.60567 5.94482 1.60567Z" fill="#4D4D4D"/>
</g>
</svg>
