<svg width="40" height="41" viewBox="0 0 40 41" fill="none" xmlns="http://www.w3.org/2000/svg">
<g id="instagram-social-media-svgrepo-com 1" clip-path="url(#clip0_1464_4441)">
<path id="Vector" d="M25.3209 10.3471H14.6809C12.0163 10.3471 9.84706 12.5163 9.84706 15.1809V25.8209C9.84706 28.4855 12.0163 30.6547 14.6809 30.6547H25.3209C27.9855 30.6547 30.1547 28.4855 30.1547 25.8209V15.1809C30.1547 12.5163 27.9855 10.3471 25.3209 10.3471ZM20.0009 26.824C16.5147 26.824 13.6778 23.9871 13.6778 20.5009C13.6778 17.0147 16.5147 14.1778 20.0009 14.1778C23.4871 14.1778 26.324 17.0147 26.324 20.5009C26.324 23.9871 23.4871 26.824 20.0009 26.824ZM26.4963 15.4701C25.6809 15.4701 25.0194 14.8086 25.0194 13.9917C25.0194 13.1763 25.6809 12.5147 26.4963 12.5147C27.3132 12.5147 27.9747 13.1763 27.9747 13.9917C27.9747 14.8086 27.3132 15.4701 26.4963 15.4701ZM20.0009 16.3317C17.7024 16.3317 15.8317 18.2024 15.8317 20.5009C15.8317 22.7994 17.7024 24.6701 20.0009 24.6701C22.2994 24.6701 24.1701 22.7994 24.1701 20.5009C24.1701 18.2024 22.2994 16.3317 20.0009 16.3317ZM20.0009 0.808594C9.12552 0.808594 0.308594 9.62552 0.308594 20.5009C0.308594 31.3763 9.12552 40.1932 20.0009 40.1932C30.8763 40.1932 39.6932 31.3763 39.6932 20.5009C39.6932 9.62552 30.8763 0.808594 20.0009 0.808594ZM32.3086 25.8209C32.3086 29.6732 29.1732 32.8086 25.3209 32.8086H14.6809C10.8286 32.8086 7.69321 29.6732 7.69321 25.8209V15.1809C7.69321 11.3286 10.8286 8.19321 14.6809 8.19321H25.3209C29.1732 8.19321 32.3086 11.3286 32.3086 15.1809V25.8209Z" fill="#F2F2F2"/>
</g>
<defs>
<clipPath id="clip0_1464_4441">
<rect width="40" height="40" fill="white" transform="translate(0 0.5)"/>
</clipPath>
</defs>
</svg>
