<svg width="29" height="29" viewBox="0 0 29 29" fill="none" xmlns="http://www.w3.org/2000/svg">
<g id="Group 190">
<path id="Vector (Stroke)" fill-rule="evenodd" clip-rule="evenodd" d="M13.8859 1.50906C15.7788 0.321496 18.0187 -0.188515 20.2392 0.0624575C22.4597 0.313431 24.5293 1.31053 26.1094 2.89064C27.6895 4.47075 28.6866 6.54032 28.9375 8.76079C29.1885 10.9813 28.6785 13.2212 27.4909 15.1141C26.3034 17.007 24.5086 18.4409 22.4001 19.1812C20.558 19.8279 18.5718 19.9118 16.6921 19.4324L16.1766 19.948C16.1765 19.948 16.1766 19.9479 16.1766 19.948C15.4364 20.6883 14.4324 21.1044 13.3856 21.1046L13.1589 21.1046V22.4205C13.1589 23.1185 12.8817 23.7879 12.3881 24.2815C11.8946 24.775 11.2251 25.0523 10.5272 25.0523H9.21126V26.3682C9.21126 27.0662 8.93398 27.7356 8.44043 28.2292C7.94687 28.7227 7.27746 29 6.57947 29H2.63179C1.9338 29 1.26439 28.7227 0.770833 28.2292C0.277276 27.7356 0 27.0662 0 26.3682V23.5101C0.000223614 22.4633 0.416233 21.4591 1.15653 20.7189C1.15648 20.719 1.15658 20.7189 1.15653 20.7189L9.5676 12.3079C9.08823 10.4282 9.17208 8.44196 9.81882 6.59987C10.5591 4.49143 11.993 2.69662 13.8859 1.50906ZM19.9436 2.67759C18.3153 2.49355 16.6727 2.86756 15.2845 3.73844C13.8964 4.60931 12.8449 5.92551 12.302 7.47169C11.7592 9.01788 11.7571 10.7025 12.2962 12.25C12.4622 12.7267 12.3409 13.2564 11.984 13.6134L3.01749 22.5799C2.77076 22.8265 2.63194 23.1612 2.63179 23.5101C2.63179 23.51 2.63179 23.5102 2.63179 23.5101V26.3682H6.57947V25.0523C6.57947 24.3543 6.85675 23.6849 7.3503 23.1914C7.84386 22.6978 8.51327 22.4205 9.21126 22.4205H10.5272V21.1046C10.5272 20.4066 10.8044 19.7372 11.298 19.2437C11.7915 18.7501 12.461 18.4728 13.1589 18.4728H13.385C13.3849 18.4728 13.3851 18.4728 13.385 18.4728C13.7339 18.4727 14.0687 18.334 14.3153 18.0873L15.3866 17.016C15.7436 16.6591 16.2733 16.5378 16.75 16.7038C18.2975 17.2429 19.9821 17.2408 21.5283 16.698C23.0745 16.1551 24.3907 15.1036 25.2616 13.7155C26.1324 12.3273 26.5065 10.6847 26.3224 9.05637C26.1384 7.42803 25.4072 5.91034 24.2484 4.75159C23.0897 3.59285 21.572 2.86164 19.9436 2.67759Z" fill="#F2F2F2"/>
<path id="Vector" d="M20.3923 9.26121C20.7557 9.26121 21.0503 8.96663 21.0503 8.60326C21.0503 8.23989 20.7557 7.94531 20.3923 7.94531C20.0289 7.94531 19.7344 8.23989 19.7344 8.60326C19.7344 8.96663 20.0289 9.26121 20.3923 9.26121Z" fill="#F2F2F2"/>
<path id="Vector (Stroke)_2" fill-rule="evenodd" clip-rule="evenodd" d="M20.3957 9.25679C20.7591 9.25679 21.0537 8.96222 21.0537 8.59884C21.0537 8.23547 20.7591 7.94089 20.3957 7.94089C20.0323 7.94089 19.7378 8.23547 19.7378 8.59884C19.7378 8.96222 20.0323 9.25679 20.3957 9.25679ZM18.4219 8.59884C18.4219 7.50872 19.3056 6.625 20.3957 6.625C21.4858 6.625 22.3696 7.50872 22.3696 8.59884C22.3696 9.68896 21.4858 10.5727 20.3957 10.5727C19.3056 10.5727 18.4219 9.68896 18.4219 8.59884Z" fill="#F2F2F2"/>
</g>
</svg>
