<svg width="18" height="17" viewBox="0 0 18 17" fill="none" xmlns="http://www.w3.org/2000/svg">
<g id="Group 90">
<g id="Group 377">
<path id="Vector (Stroke)" fill-rule="evenodd" clip-rule="evenodd" d="M1.12688 0.822197C1.55328 0.395798 2.1316 0.15625 2.73462 0.15625H8.17024C8.77317 0.156379 9.35153 0.395981 9.77782 0.822359C9.77779 0.822332 9.77785 0.822386 9.77782 0.822359L16.3762 7.42077C16.8596 7.90724 17.1309 8.56519 17.1309 9.25099C17.1309 9.93679 16.8596 10.5947 16.3762 11.0812L16.3745 11.0829L11.3876 16.0699L11.3859 16.0715C10.8994 16.5549 10.2415 16.8263 9.55568 16.8263C8.86988 16.8263 8.21193 16.5549 7.72546 16.0715L7.72376 16.0699L1.12713 9.47321C1.1271 9.47319 1.12715 9.47324 1.12713 9.47321C0.700749 9.04692 0.461066 8.46865 0.460938 7.86572V2.42993C0.460938 1.82692 0.700486 1.2486 1.12688 0.822197ZM2.73462 1.67204C2.53362 1.67204 2.34084 1.75189 2.19871 1.89402C2.05658 2.03615 1.97673 2.22893 1.97673 2.42993V7.86539C1.97673 7.86534 1.97673 7.86545 1.97673 7.86539C1.97681 8.06633 2.05669 8.25917 2.19879 8.40123L8.79389 14.9963C8.79415 14.9966 8.79441 14.9969 8.79468 14.9971C8.99708 15.1978 9.2706 15.3105 9.55568 15.3105C9.84076 15.3105 10.1143 15.1978 10.3167 14.9971C10.3169 14.9969 10.3172 14.9966 10.3175 14.9963L15.301 10.0128C15.3013 10.0125 15.3015 10.0123 15.3018 10.012C15.5025 9.80959 15.6151 9.53607 15.6151 9.25099C15.6151 8.96591 15.5025 8.69239 15.3018 8.48999C15.3015 8.48973 15.3013 8.48946 15.301 8.4892L8.706 1.89418C8.56393 1.75208 8.37118 1.67213 8.17024 1.67204C8.17019 1.67204 8.1703 1.67204 8.17024 1.67204H2.73462Z" fill="#F2F2F2"/>
<path id="Vector" d="M5.34662 5.90417C5.82282 5.90417 6.20886 5.51813 6.20886 5.04193C6.20886 4.56573 5.82282 4.17969 5.34662 4.17969C4.87041 4.17969 4.48438 4.56573 4.48438 5.04193C4.48438 5.51813 4.87041 5.90417 5.34662 5.90417Z" fill="#F2F2F2"/>
<path id="Vector (Stroke)_2" fill-rule="evenodd" clip-rule="evenodd" d="M5.3217 5.40289C5.53482 5.40289 5.70758 5.23013 5.70758 5.01701C5.70758 4.8039 5.53482 4.63113 5.3217 4.63113C5.10859 4.63113 4.93582 4.8039 4.93582 5.01701C4.93582 5.23013 5.10859 5.40289 5.3217 5.40289ZM4.16406 5.01701C4.16406 4.37767 4.68236 3.85938 5.3217 3.85938C5.96105 3.85938 6.47934 4.37767 6.47934 5.01701C6.47934 5.65636 5.96105 6.17465 5.3217 6.17465C4.68236 6.17465 4.16406 5.65636 4.16406 5.01701Z" fill="#F2F2F2"/>
</g>
</g>
</svg>
