<svg width="33" height="33" viewBox="0 0 33 33" fill="none" xmlns="http://www.w3.org/2000/svg">
<path d="M11.8234 23.6586V12.6225H8.15336V23.6598H11.8223L11.8234 23.6586ZM9.98839 11.1139C11.2671 11.1139 12.065 10.2654 12.065 9.20582C12.0415 8.12389 11.2671 7.30007 10.0143 7.30007C8.75679 7.30007 7.93768 8.12507 7.93768 9.20582C7.93768 10.2665 8.73439 11.1151 9.966 11.1151L9.98839 11.1139ZM25.0529 23.6586V17.3309C25.0529 13.9401 23.2426 12.362 20.8301 12.362C18.8807 12.362 18.0086 13.4345 17.523 14.1853V12.6201H13.8541C13.9024 13.6573 13.8541 23.6586 13.8541 23.6586H17.523V17.4947C17.523 17.1647 17.5466 16.8347 17.6432 16.6014C17.9072 15.9414 18.5118 15.259 19.5242 15.259C20.8525 15.259 21.3864 16.2702 21.3864 17.754V23.6598H25.0541L25.0529 23.6586ZM16.5 0C25.6127 0 33 7.38611 33 16.5C33 25.6127 25.6127 33 16.5 33C7.38611 33 0 25.6127 0 16.5C0 7.38611 7.38611 0 16.5 0Z" fill="white"/>
</svg>
