<svg width="16" height="18" viewBox="0 0 16 18" fill="none" xmlns="http://www.w3.org/2000/svg">
<g id="Group 514">
<path id="Vector" d="M7.85938 13.0703C8.27359 13.0703 8.60938 12.7345 8.60938 12.3203C8.60938 11.9061 8.27359 11.5703 7.85938 11.5703C7.44516 11.5703 7.10938 11.9061 7.10938 12.3203C7.10938 12.7345 7.44516 13.0703 7.85938 13.0703Z" fill="#808080"/>
<path id="Vector (Stroke)" fill-rule="evenodd" clip-rule="evenodd" d="M7.85938 12.5703C7.99745 12.5703 8.10938 12.4584 8.10938 12.3203C8.10938 12.1822 7.99745 12.0703 7.85938 12.0703C7.7213 12.0703 7.60938 12.1822 7.60938 12.3203C7.60938 12.4584 7.7213 12.5703 7.85938 12.5703ZM6.10938 12.3203C6.10938 11.3538 6.89288 10.5703 7.85938 10.5703C8.82587 10.5703 9.60938 11.3538 9.60938 12.3203C9.60938 13.2868 8.82587 14.0703 7.85938 14.0703C6.89288 14.0703 6.10938 13.2868 6.10938 12.3203Z" fill="#808080"/>
<path id="Vector (Stroke)_2" fill-rule="evenodd" clip-rule="evenodd" d="M2.60938 8.82031C2.33323 8.82031 2.10938 9.04417 2.10938 9.32031V15.3203C2.10938 15.5965 2.33323 15.8203 2.60938 15.8203H13.1094C13.3855 15.8203 13.6094 15.5965 13.6094 15.3203V9.32031C13.6094 9.04417 13.3855 8.82031 13.1094 8.82031H2.60938ZM0.109375 9.32031C0.109375 7.9396 1.22866 6.82031 2.60938 6.82031H13.1094C14.4901 6.82031 15.6094 7.9396 15.6094 9.32031V15.3203C15.6094 16.701 14.4901 17.8203 13.1094 17.8203H2.60938C1.22866 17.8203 0.109375 16.701 0.109375 15.3203V9.32031Z" fill="#808080"/>
<path id="Vector (Stroke)_3" fill-rule="evenodd" clip-rule="evenodd" d="M7.85938 2.82031C7.13003 2.82031 6.43056 3.11004 5.91483 3.62577C5.39911 4.14149 5.10938 4.84097 5.10938 5.57031V7.82031C5.10938 8.3726 4.66166 8.82031 4.10938 8.82031C3.55709 8.82031 3.10938 8.3726 3.10938 7.82031V5.57031C3.10938 4.31053 3.60982 3.10235 4.50062 2.21156C5.39142 1.32076 6.5996 0.820312 7.85938 0.820312C9.11915 0.820312 10.3273 1.32076 11.2181 2.21156C12.1089 3.10235 12.6094 4.31053 12.6094 5.57031V7.82031C12.6094 8.3726 12.1617 8.82031 11.6094 8.82031C11.0571 8.82031 10.6094 8.3726 10.6094 7.82031V5.57031C10.6094 4.84097 10.3196 4.14149 9.80392 3.62577C9.28819 3.11004 8.58872 2.82031 7.85938 2.82031Z" fill="#808080"/>
</g>
</svg>
