<svg width="14" height="14" viewBox="0 0 14 14" fill="none" xmlns="http://www.w3.org/2000/svg">
<g id="Group 239">
<path id="Vector (Stroke)" fill-rule="evenodd" clip-rule="evenodd" d="M7 1.49237C4.06285 1.49237 1.68182 3.8734 1.68182 6.81055C1.68182 9.7477 4.06285 12.1287 7 12.1287C9.93715 12.1287 12.3182 9.7477 12.3182 6.81055C12.3182 3.8734 9.93715 1.49237 7 1.49237ZM0.5 6.81055C0.5 3.2207 3.41015 0.310547 7 0.310547C10.5899 0.310547 13.5 3.2207 13.5 6.81055C13.5 10.4004 10.5899 13.3105 7 13.3105C3.41015 13.3105 0.5 10.4004 0.5 6.81055Z" fill="#4D4D4D"/>
<path id="Vector (Stroke)_2" fill-rule="evenodd" clip-rule="evenodd" d="M9.19092 5.21018C9.42168 5.44095 9.42168 5.81509 9.19092 6.04585L6.82728 8.40949C6.59652 8.64025 6.22237 8.64025 5.99161 8.40949L4.80979 7.22767C4.57903 6.99691 4.57903 6.62277 4.80979 6.392C5.04056 6.16124 5.4147 6.16124 5.64546 6.392L6.40945 7.15598L8.35525 5.21018C8.58601 4.97942 8.96015 4.97942 9.19092 5.21018Z" fill="#4D4D4D"/>
</g>
</svg>
