<svg width="29" height="29" viewBox="0 0 29 29" fill="none" xmlns="http://www.w3.org/2000/svg">
<g id="Open Sidebar icon">
<path id="Vector" d="M24.2712 0H4.72879C2.12313 0 0 2.1868 0 4.87061V24.1294C0 26.838 2.12313 29 4.72879 29H24.2471C26.8769 29 29 26.8132 29 24.1294V4.87061C29 2.16195 26.8769 0 24.2471 0H24.2712ZM26.7804 21.8432C26.7804 24.5518 24.6572 26.7138 22.0275 26.7138H6.97255C4.34276 26.7138 2.24376 24.527 2.24376 21.8432V7.18166C2.24376 4.47301 4.36689 2.31105 6.97255 2.31105H22.0516C24.6814 2.31105 26.8045 4.49786 26.8045 7.18166V21.8432H26.7804Z" fill="#F2F2F2"/>
<path id="Vector_2" d="M12.9105 5.34375V23.6582H6.46872C5.57605 23.6582 4.82812 22.9127 4.82812 21.9684V7.03355C4.82812 6.1141 5.55192 5.34375 6.46872 5.34375H12.9105Z" fill="#F2F2F2"/>
</g>
</svg>
