<svg width="18" height="17" viewBox="0 0 18 17" fill="none" xmlns="http://www.w3.org/2000/svg">
<g id="Group 381">
<path id="Vector (Stroke)" fill-rule="evenodd" clip-rule="evenodd" d="M3.0073 0.822049C3.48719 0.395745 4.13805 0.15625 4.81672 0.15625H11.1287C11.5998 0.15625 11.9816 0.495496 11.9816 0.913977C11.9816 1.33246 11.5998 1.6717 11.1287 1.6717H4.81672C4.59049 1.6717 4.37354 1.75154 4.21358 1.89364C4.05361 2.03574 3.96375 2.22847 3.96375 2.42943V14.5531C3.96375 14.754 4.05361 14.9468 4.21358 15.0889C4.37354 15.231 4.5905 15.3108 4.81672 15.3108H15.0523C15.2786 15.3108 15.4955 15.231 15.6555 15.0889C15.8154 14.9468 15.9053 14.754 15.9053 14.5531V8.94589C15.9053 8.5274 16.2872 8.18816 16.7583 8.18816C17.2293 8.18816 17.6112 8.5274 17.6112 8.94589V14.5531C17.6112 15.156 17.3416 15.7341 16.8617 16.1604C16.3819 16.5868 15.731 16.8263 15.0523 16.8263H4.81672C4.13805 16.8263 3.48719 16.5868 3.0073 16.1604C2.52741 15.7341 2.25781 15.156 2.25781 14.5531V2.42943C2.25781 1.82655 2.52741 1.24835 3.0073 0.822049Z" fill="#F2F2F2"/>
<g id="Group 382">
<path id="Vector (Stroke)_2" fill-rule="evenodd" clip-rule="evenodd" d="M0.9375 3.73131C0.9375 3.2929 1.26483 2.9375 1.66862 2.9375H4.59308C4.99686 2.9375 5.32419 3.2929 5.32419 3.73131C5.32419 4.16972 4.99686 4.52512 4.59308 4.52512H1.66862C1.26483 4.52512 0.9375 4.16972 0.9375 3.73131Z" fill="#F2F2F2"/>
<path id="Vector (Stroke)_3" fill-rule="evenodd" clip-rule="evenodd" d="M0.9375 6.90318C0.9375 6.46478 1.26483 6.10938 1.66862 6.10938H4.59308C4.99686 6.10938 5.32419 6.46478 5.32419 6.90318C5.32419 7.34159 4.99686 7.69699 4.59308 7.69699H1.66862C1.26483 7.69699 0.9375 7.34159 0.9375 6.90318Z" fill="#F2F2F2"/>
<path id="Vector (Stroke)_4" fill-rule="evenodd" clip-rule="evenodd" d="M0.9375 10.0829C0.9375 9.64446 1.26483 9.28906 1.66862 9.28906H4.59308C4.99686 9.28906 5.32419 9.64446 5.32419 10.0829C5.32419 10.5213 4.99686 10.8767 4.59308 10.8767H1.66862C1.26483 10.8767 0.9375 10.5213 0.9375 10.0829Z" fill="#F2F2F2"/>
<path id="Vector (Stroke)_5" fill-rule="evenodd" clip-rule="evenodd" d="M0.9375 13.2547C0.9375 12.8163 1.26483 12.4609 1.66862 12.4609H4.59308C4.99686 12.4609 5.32419 12.8163 5.32419 13.2547C5.32419 13.6932 4.99686 14.0486 4.59308 14.0486H1.66862C1.26483 14.0486 0.9375 13.6932 0.9375 13.2547Z" fill="#F2F2F2"/>
</g>
<path id="Vector (Stroke)_6" fill-rule="evenodd" clip-rule="evenodd" d="M13.7095 0.882619C14.1378 0.417533 14.7188 0.15625 15.3246 0.15625C15.9304 0.15625 16.5113 0.417533 16.9397 0.882619C17.3681 1.34771 17.6087 1.9785 17.6087 2.63623C17.6087 3.29396 17.3681 3.92475 16.9397 4.38984L13.2748 8.36588C13.0142 8.64897 12.6921 8.85619 12.3382 8.96838L10.2397 9.63286C10.2397 9.63287 10.2397 9.63286 10.2397 9.63286C10.051 9.69263 9.85088 9.69622 9.66044 9.64324C9.46999 9.59026 9.29616 9.48267 9.15715 9.33174C9.01813 9.1808 8.91904 8.99207 8.87025 8.78529C8.82146 8.57852 8.82476 8.36131 8.8798 8.1564C8.8798 8.15641 8.8798 8.15639 8.8798 8.1564L9.49174 5.87817C9.59504 5.49408 9.78588 5.14418 10.0465 4.86129C10.0464 4.86137 10.0466 4.8612 10.0465 4.86129L13.7095 0.882619ZM14.7434 2.00524C14.7434 2.00526 14.7435 2.00521 14.7434 2.00524L11.0806 5.9837C10.9938 6.07795 10.93 6.19469 10.8955 6.32266L10.4702 7.90612L11.9283 7.4444C12.0463 7.40701 12.1537 7.33793 12.2405 7.24357L15.9057 3.26722C16.0599 3.09987 16.1465 2.8729 16.1465 2.63623C16.1465 2.39956 16.0599 2.17259 15.9057 2.00524C15.7516 1.83789 15.5426 1.74387 15.3246 1.74387C15.1066 1.74387 14.8976 1.83794 14.7434 2.00524Z" fill="#F2F2F2"/>
</g>
</svg>
