<svg width="19" height="19" viewBox="0 0 19 19" fill="none" xmlns="http://www.w3.org/2000/svg">
<g id="Group 81">
<path id="Vector (Stroke)" fill-rule="evenodd" clip-rule="evenodd" d="M12.8657 1.81724C13.4517 1.23134 14.2465 0.90224 15.0752 0.902344C15.9039 0.902448 16.6986 1.23175 17.2845 1.8178C17.8704 2.40385 18.1995 3.19864 18.1994 4.02734C18.1993 4.85604 17.87 5.65075 17.284 6.23665L6.36361 17.1587L6.36264 17.1596C6.07812 17.4432 5.72834 17.6527 5.34399 17.7696L1.77982 18.8504C1.56763 18.9142 1.34215 18.9193 1.12728 18.8653C0.912417 18.8113 0.716176 18.7001 0.559383 18.5436C0.402593 18.387 0.291102 18.191 0.236739 17.9762C0.182375 17.7614 0.187166 17.5359 0.250604 17.3236L0.25162 17.3203L1.33246 13.7595L1.33313 13.7573C1.451 13.3728 1.6615 13.0233 1.94611 12.7393C1.94633 12.739 1.94656 12.7388 1.94678 12.7386L12.8657 1.81724ZM14.0226 2.97449C14.0226 2.97454 14.0227 2.97445 14.0226 2.97449L3.1031 13.8965L3.10219 13.8974C3.00744 13.9919 2.9373 14.1082 2.89793 14.236C2.89783 14.2363 2.89774 14.2366 2.89764 14.237L2.04031 17.0614L4.86782 16.204C4.99568 16.1651 5.11206 16.0955 5.2068 16.0013C5.20661 16.0015 5.20699 16.0011 5.2068 16.0013L16.1269 5.07952C16.406 4.80046 16.563 4.42183 16.563 4.02713C16.5631 3.63244 16.4063 3.25389 16.1273 2.97476C15.8482 2.69563 15.4697 2.53879 15.075 2.53874C14.6804 2.53869 14.3018 2.69552 14.0226 2.97449Z" fill="#F2F2F2"/>
<path id="Vector (Stroke)_2" fill-rule="evenodd" clip-rule="evenodd" d="M11.0756 3.59511C11.3951 3.27559 11.9132 3.27559 12.2327 3.59511L15.5055 6.86791C15.825 7.18743 15.825 7.70549 15.5055 8.02502C15.186 8.34454 14.6679 8.34454 14.3484 8.02502L11.0756 4.75222C10.7561 4.43269 10.7561 3.91464 11.0756 3.59511Z" fill="#F2F2F2"/>
</g>
</svg>
