<svg width="13" height="14" viewBox="0 0 13 14" fill="none" xmlns="http://www.w3.org/2000/svg">
<g id="Group 220">
<path id="Vector (Stroke)" fill-rule="evenodd" clip-rule="evenodd" d="M1.95 1.925C1.59101 1.925 1.3 2.21601 1.3 2.575V11.675C1.3 12.034 1.59101 12.325 1.95 12.325H11.05C11.409 12.325 11.7 12.034 11.7 11.675V2.575C11.7 2.21601 11.409 1.925 11.05 1.925H1.95ZM0 2.575C0 1.49804 0.873045 0.625 1.95 0.625H11.05C12.127 0.625 13 1.49804 13 2.575V11.675C13 12.752 12.127 13.625 11.05 13.625H1.95C0.873045 13.625 0 12.752 0 11.675V2.575Z" fill="#F2F2F2"/>
<path id="Vector (Stroke)_2" fill-rule="evenodd" clip-rule="evenodd" d="M3.25 7.12656C3.25 6.76758 3.54101 6.47656 3.9 6.47656H9.1C9.45899 6.47656 9.75 6.76758 9.75 7.12656C9.75 7.48555 9.45899 7.77656 9.1 7.77656H3.9C3.54101 7.77656 3.25 7.48555 3.25 7.12656Z" fill="#F2F2F2"/>
<path id="Vector (Stroke)_3" fill-rule="evenodd" clip-rule="evenodd" d="M6.50156 3.875C6.86055 3.875 7.15156 4.16601 7.15156 4.525V9.725C7.15156 10.084 6.86055 10.375 6.50156 10.375C6.14258 10.375 5.85156 10.084 5.85156 9.725V4.525C5.85156 4.16601 6.14258 3.875 6.50156 3.875Z" fill="#F2F2F2"/>
</g>
</svg>
