<svg width="29" height="30" viewBox="0 0 29 30" fill="none" xmlns="http://www.w3.org/2000/svg">
<g id="Tern Profile Button">
<path id="Vector" d="M14.4998 17.5241C11.0357 17.5241 8.21484 14.7032 8.21484 11.2391C8.21484 7.77492 11.0357 4.9541 14.4998 4.9541C17.964 4.9541 20.7848 7.77492 20.7848 11.2391C20.7848 14.7032 17.964 17.5241 14.4998 17.5241ZM14.4998 7.23055C12.2976 7.23055 10.4913 9.03687 10.4913 11.2391C10.4913 13.4413 12.2976 15.2476 14.4998 15.2476C16.702 15.2476 18.5084 13.4413 18.5084 11.2391C18.5084 9.03687 16.702 7.23055 14.4998 7.23055Z" fill="#F2F2F2"/>
<path id="Vector_2" d="M14.5 0.5C6.50768 0.5 0 7.00768 0 15C0 19.157 1.78157 23.116 4.89932 25.8874C5.19625 26.1348 5.46843 26.3575 5.7901 26.5802C5.81485 26.6297 5.86433 26.6544 5.88908 26.6792C5.93857 26.7287 6.0128 26.7534 6.06229 26.7782C8.51195 28.5597 11.4317 29.5 14.5 29.5C17.5683 29.5 20.4633 28.5597 22.9377 26.7782C22.9872 26.7534 23.0367 26.7039 23.0862 26.6792C23.1357 26.6544 23.1604 26.6049 23.2099 26.5802C23.5068 26.3575 23.8038 26.1348 24.0759 25.8874C27.1937 23.116 29 19.157 29 15C29 7.00768 22.4923 0.5 14.5 0.5ZM8.0913 25.3925C9.52645 23.2645 11.9019 21.9778 14.5 21.9778C17.0981 21.9778 19.4735 23.2645 20.9087 25.3925C17.0239 27.7679 11.9514 27.7679 8.0913 25.3925ZM22.715 24.0316C20.884 21.3345 17.8404 19.7014 14.5 19.7014C11.1596 19.7014 8.11604 21.3345 6.26024 24.0316C3.73635 21.7304 2.27645 18.4394 2.27645 15C2.27645 8.26962 7.74488 2.77645 14.5 2.77645C21.2551 2.77645 26.6988 8.26962 26.6988 15C26.6988 18.4394 25.2389 21.7304 22.715 24.0316Z" fill="#F2F2F2"/>
</g>
</svg>
