<svg width="40" height="40" viewBox="0 0 40 40" fill="none" xmlns="http://www.w3.org/2000/svg">
<g id="reddit-logo 1" clip-path="url(#clip0_1294_1862)">
<path id="Vector" d="M15.6048 23.9919C14.4919 23.9919 13.5968 23.0968 13.5968 22.0081C13.5968 20.9194 14.4919 20 15.6048 20C16.7177 20 17.5887 20.8952 17.5887 22.0081C17.5887 23.121 16.6935 23.9919 15.6048 23.9919ZM40 20C40 31.0484 31.0484 40 20 40C8.95161 40 0 31.0484 0 20C0 8.95161 8.95161 0 20 0C31.0484 0 40 8.95161 40 20ZM29.3306 16.6774C28.5726 16.6774 27.9032 16.9919 27.4113 17.4839C25.6048 16.2339 23.1694 15.4274 20.4677 15.3387L21.871 9.02419L26.3387 10.0323C26.3387 11.129 27.2339 12.0161 28.3226 12.0161C29.4113 12.0161 30.3306 11.1048 30.3306 10.0081C30.3306 8.91129 29.4355 8 28.3226 8C27.5403 8 26.871 8.46774 26.5403 9.1129L21.6048 8.01613C21.3629 7.95161 21.1129 8.12903 21.0484 8.37097L19.5081 15.3387C16.8306 15.4516 14.4194 16.25 12.6129 17.5C12.121 16.9839 11.4274 16.6774 10.6694 16.6774C7.85484 16.6774 6.93548 20.4597 9.50806 21.7419C9.41935 22.1452 9.37097 22.5645 9.37097 22.9919C9.37097 27.2339 14.1452 30.6694 20.0161 30.6694C25.8871 30.6694 30.6855 27.2339 30.6855 22.9919C30.6855 22.5645 30.6371 22.121 30.5323 21.7177C33.0564 20.4274 32.129 16.6774 29.3306 16.6774ZM23.7742 26.0484C22.3064 27.5161 17.6371 27.4919 16.2258 26.0484C16.0484 25.871 15.7339 25.871 15.5565 26.0484C15.3548 26.25 15.3548 26.5645 15.5565 26.7419C17.3952 28.5806 22.5968 28.5806 24.4435 26.7419C24.6452 26.5645 24.6452 26.25 24.4435 26.0484C24.2661 25.871 23.9516 25.871 23.7742 26.0484ZM24.3952 20C23.2984 20 22.4113 20.8952 22.4113 22.0081C22.4113 23.121 23.3065 23.9919 24.3952 23.9919C25.4839 23.9919 26.4032 23.0968 26.4032 22.0081C26.4032 20.9194 25.5161 20 24.3952 20Z" fill="#F2F2F2"/>
</g>
<defs>
<clipPath id="clip0_1294_1862">
<rect width="40" height="40" fill="white"/>
</clipPath>
</defs>
</svg>
