<svg width="19" height="19" viewBox="0 0 19 19" fill="none" xmlns="http://www.w3.org/2000/svg">
<g id="Share">
<path id="Vector (Stroke)" fill-rule="evenodd" clip-rule="evenodd" d="M14.6 2.70234C13.6059 2.70234 12.8 3.50823 12.8 4.50234C12.8 5.49646 13.6059 6.30234 14.6 6.30234C15.5941 6.30234 16.4 5.49646 16.4 4.50234C16.4 3.50823 15.5941 2.70234 14.6 2.70234ZM11 4.50234C11 2.51412 12.6118 0.902344 14.6 0.902344C16.5882 0.902344 18.2 2.51412 18.2 4.50234C18.2 6.49057 16.5882 8.10234 14.6 8.10234C12.6118 8.10234 11 6.49057 11 4.50234Z" fill="#F2F2F2"/>
<path id="Vector (Stroke)_2" fill-rule="evenodd" clip-rule="evenodd" d="M3.79922 8.10078C2.80511 8.10078 1.99922 8.90667 1.99922 9.90078C1.99922 10.8949 2.80511 11.7008 3.79922 11.7008C4.79333 11.7008 5.59922 10.8949 5.59922 9.90078C5.59922 8.90667 4.79333 8.10078 3.79922 8.10078ZM0.199219 9.90078C0.199219 7.91256 1.81099 6.30078 3.79922 6.30078C5.78744 6.30078 7.39922 7.91256 7.39922 9.90078C7.39922 11.889 5.78744 13.5008 3.79922 13.5008C1.81099 13.5008 0.199219 11.889 0.199219 9.90078Z" fill="#F2F2F2"/>
<path id="Vector (Stroke)_3" fill-rule="evenodd" clip-rule="evenodd" d="M14.6 13.5031C13.6059 13.5031 12.8 14.309 12.8 15.3031C12.8 16.2972 13.6059 17.1031 14.6 17.1031C15.5941 17.1031 16.4 16.2972 16.4 15.3031C16.4 14.309 15.5941 13.5031 14.6 13.5031ZM11 15.3031C11 13.3149 12.6118 11.7031 14.6 11.7031C16.5882 11.7031 18.2 13.3149 18.2 15.3031C18.2 17.2913 16.5882 18.9031 14.6 18.9031C12.6118 18.9031 11 17.2913 11 15.3031Z" fill="#F2F2F2"/>
<path id="Vector (Stroke)_4" fill-rule="evenodd" clip-rule="evenodd" d="M5.76498 10.7808C6.02871 10.3993 6.24374 10.0981 6.665 10.3405L12.6946 13.8094C13.1159 14.0517 12.9022 14.1415 12.6385 14.523C12.3748 14.9044 12.1608 15.4331 11.7396 15.1907L5.70995 11.7218C5.28869 11.4794 5.50125 11.1622 5.76498 10.7808Z" fill="#F2F2F2"/>
<path id="Vector (Stroke)_5" fill-rule="evenodd" clip-rule="evenodd" d="M12.6405 5.2799C12.9045 5.66119 13.1091 5.75091 12.688 5.9935L6.66739 9.4621C6.2463 9.7047 6.0308 9.4034 5.7668 9.02211C5.5028 8.64082 5.29028 8.32391 5.71137 8.08132L11.732 4.61272C12.1531 4.37012 12.3765 4.89861 12.6405 5.2799Z" fill="#F2F2F2"/>
</g>
</svg>
