<svg width="40" height="40" viewBox="0 0 40 40" fill="none" xmlns="http://www.w3.org/2000/svg">
<g id="microsoftsharepoint-svgrepo-com 1" clip-path="url(#clip0_1804_5150)">
<path id="Vector" d="M16.483 22.9856C16.6663 22.6792 16.7576 22.296 16.7576 21.8359C16.7576 21.3757 16.6622 20.9942 16.4709 20.6873C16.279 20.3809 16.0385 20.1254 15.7495 19.9214C15.4599 19.7168 15.1489 19.5486 14.8171 19.4168L13.8853 19.0463C13.5957 18.9312 13.3553 18.8104 13.164 18.6821C12.972 18.5543 12.8761 18.3925 12.8761 18.1971C12.8761 18.052 12.927 17.9347 13.0287 17.8451C13.131 17.7555 13.253 17.6856 13.3934 17.6347C13.5339 17.5838 13.6801 17.5497 13.8333 17.5324C13.9859 17.5156 14.1131 17.5075 14.216 17.5075C14.6501 17.5075 15.0333 17.563 15.3657 17.6734C15.6975 17.7844 16.0426 17.9503 16.401 18.1711V16.2307C16.1963 16.1711 16.0067 16.1202 15.8322 16.078C15.6576 16.0347 15.4853 15.9983 15.3148 15.9694C15.1449 15.9393 14.9686 15.9179 14.7853 15.9052C14.6021 15.8931 14.3998 15.8867 14.1784 15.8867C13.8044 15.8867 13.4218 15.9295 13.0299 16.0145C12.6374 16.0994 12.2819 16.2359 11.9634 16.4231C11.6437 16.6104 11.3842 16.8572 11.1842 17.1642C10.9842 17.47 10.8848 17.8439 10.8848 18.2861C10.8848 18.7283 10.9801 19.0827 11.1715 19.3723C11.3634 19.6613 11.6038 19.9081 11.894 20.1133C12.183 20.3168 12.4934 20.489 12.8258 20.6295L13.7582 21.0249C14.0472 21.1486 14.2877 21.2786 14.4796 21.415C14.6703 21.5509 14.7663 21.7168 14.7663 21.9127C14.7663 22.074 14.7218 22.2012 14.6322 22.2954C14.5426 22.3896 14.4304 22.4624 14.2946 22.5133C14.1582 22.5642 14.0154 22.596 13.8663 22.6081C13.7171 22.6214 13.5836 22.6278 13.464 22.6278C12.9536 22.6278 12.5004 22.5428 12.1044 22.3728C11.7085 22.2023 11.3067 21.9769 10.8981 21.6965V23.7393C11.7663 24.0792 12.664 24.2491 13.5911 24.2491C13.9836 24.2491 14.3686 24.2087 14.746 24.1283C15.1252 24.048 15.4634 23.9133 15.7616 23.7254C16.0593 23.5387 16.2998 23.2919 16.483 22.9856Z" fill="#F2F2F2"/>
<path id="Vector_2" d="M20 0C8.95434 0 0 8.95434 0 20C0 31.0457 8.95434 40 20 40C31.0457 40 40 31.0457 40 20C40 8.95434 31.0457 0 20 0ZM32.5566 24.1751C32.2121 24.9671 31.7445 25.6584 31.152 26.2497C30.5607 26.8416 29.8694 27.3104 29.0775 27.6549C28.2855 27.9994 27.4387 28.1711 26.537 28.1711C25.9832 28.1711 25.4306 28.0983 24.8775 27.9532C24.8006 28.6775 24.5983 29.352 24.2705 29.9775C23.9428 30.6035 23.5237 31.1462 23.0133 31.6052C22.5017 32.0647 21.9185 32.4243 21.2636 32.6838C20.6087 32.9439 19.915 33.074 19.1827 33.074C18.3908 33.074 17.648 32.9231 16.9543 32.6208C16.2607 32.3185 15.6561 31.9098 15.1416 31.3954C14.6272 30.8809 14.2179 30.2763 13.9162 29.5827C13.6139 28.889 13.463 28.1462 13.463 27.3543C13.463 27.2179 13.4694 27.0815 13.4827 26.9457C13.4948 26.8092 13.5092 26.6728 13.526 26.537H8.01214C7.71445 26.537 7.45896 26.4306 7.24624 26.2179C7.03353 26.0052 6.92659 25.7497 6.92601 25.452V14.548C6.92601 14.2503 7.03237 13.9948 7.24509 13.7821C7.4578 13.5694 7.71329 13.463 8.01098 13.463H11.8676C11.9694 12.5353 12.2329 11.6734 12.6584 10.8775C13.0838 10.0815 13.6243 9.39017 14.2798 8.80289C14.9347 8.21503 15.6821 7.75549 16.5208 7.4237C17.3584 7.09191 18.2457 6.92601 19.1827 6.92601C20.196 6.92601 21.1491 7.11965 22.0428 7.50694C22.9364 7.89422 23.715 8.41965 24.3798 9.08324C25.0439 9.74798 25.5694 10.5266 25.9561 11.4202C26.3434 12.3139 26.537 13.2671 26.537 14.2803C26.537 14.4168 26.5324 14.5532 26.5237 14.689C26.5156 14.8254 26.5029 14.9618 26.4855 15.0977C27.3879 15.0977 28.2387 15.2682 29.0393 15.6087C29.8387 15.9486 30.5393 16.4121 31.1399 17C31.7399 17.5879 32.2121 18.2792 32.5561 19.0746C32.9012 19.8705 33.0734 20.7243 33.0734 21.6347C33.0734 22.5451 32.9012 23.3838 32.5561 24.1751H32.5566Z" fill="#F2F2F2"/>
<path id="Vector_3" d="M22.3508 24.7669C22.0601 24.4137 21.7156 24.1137 21.3156 23.8669C20.9162 23.62 20.478 23.4455 20.0005 23.3438V25.4495C20.0005 25.7472 19.8942 26.0027 19.6815 26.2154C19.4688 26.4281 19.2133 26.5345 18.9156 26.5345H15.174C15.1231 26.8068 15.0977 27.079 15.0977 27.3518C15.0977 27.9131 15.204 28.4432 15.4167 28.9414C15.6294 29.4397 15.9214 29.8738 16.2919 30.2432C16.6624 30.6137 17.0965 30.905 17.5936 31.1183C18.0919 31.331 18.6219 31.4374 19.1832 31.4374C19.7445 31.4374 20.2722 31.331 20.7664 31.1183C21.2601 30.9056 21.6925 30.6137 22.063 30.2432C22.4335 29.8727 22.7271 29.4385 22.9433 28.9414C23.1607 28.4432 23.2693 27.9131 23.2693 27.3518C23.2693 26.8669 23.1884 26.4027 23.0266 25.9605C22.8653 25.5172 22.6404 25.1195 22.3508 24.7663V24.7669Z" fill="#F2F2F2"/>
<path id="Vector_4" d="M19.6825 13.7839C19.8952 13.9966 20.0016 14.2521 20.0016 14.5498V19.9376L20.2305 19.8995C20.3842 19.355 20.6062 18.8376 20.8952 18.348C21.1848 17.859 21.5276 17.4168 21.9235 17.0209C22.3195 16.6249 22.7599 16.2822 23.2449 15.9926C23.7299 15.7035 24.2495 15.4822 24.8027 15.3278C24.8703 14.9625 24.9039 14.6139 24.9039 14.2822C24.9039 13.4902 24.753 12.7475 24.4507 12.0538C24.1484 11.3602 23.7397 10.7561 23.2253 10.2411C22.7102 9.72608 22.1062 9.31741 21.4125 9.01568C20.7183 8.71337 19.975 8.5625 19.1836 8.5625C18.4767 8.5625 17.8027 8.6862 17.1605 8.93302C16.5177 9.17984 15.9449 9.52262 15.4426 9.96019C14.9409 10.3989 14.5218 10.918 14.1854 11.518C13.8495 12.118 13.631 12.7671 13.5293 13.4648H18.9172C19.2148 13.4648 19.4703 13.5712 19.6831 13.7839H19.6825Z" fill="#F2F2F2"/>
<path id="Vector_5" d="M30.0047 18.1663C29.5573 17.7195 29.0359 17.3686 28.44 17.1137C27.8446 16.8582 27.2105 16.7305 26.5377 16.7305C25.8648 16.7305 25.233 16.8599 24.6417 17.1195C24.0498 17.3796 23.5301 17.7328 23.0839 18.1796C22.6371 18.6264 22.2839 19.1455 22.0238 19.7374C21.7642 20.3287 21.6348 20.9605 21.6348 21.6334C21.6348 21.727 21.6371 21.8206 21.6411 21.9143C21.6452 22.0079 21.6515 22.1016 21.6596 22.1952C22.0596 22.3912 22.4301 22.6276 22.7712 22.9033C23.1116 23.179 23.4163 23.49 23.6845 23.8351C23.9527 24.1802 24.1804 24.5524 24.3677 24.953C24.555 25.3524 24.6955 25.7692 24.7891 26.2039C25.359 26.4253 25.9423 26.5363 26.5377 26.5363C27.2105 26.5363 27.8446 26.4085 28.44 26.153C29.0353 25.8981 29.5573 25.5472 30.0047 25.1004C30.4515 24.653 30.8024 24.1339 31.0573 23.5426C31.3128 22.9507 31.4405 22.3143 31.4405 21.6339C31.4405 20.9536 31.3128 20.327 31.0573 19.7316C30.8024 19.1362 30.4515 18.6143 30.0047 18.1669V18.1663Z" fill="#F2F2F2"/>
</g>
<defs>
<clipPath id="clip0_1804_5150">
<rect width="40" height="40" fill="white"/>
</clipPath>
</defs>
</svg>
