<svg width="40" height="40" viewBox="0 0 40 40" fill="none" xmlns="http://www.w3.org/2000/svg">
<g id="stack-overflow 1" clip-path="url(#clip0_1294_1860)">
<path id="Vector" d="M20 0C8.97143 0 0 8.97143 0 20C0 31.0286 8.97143 40 20 40C31.0286 40 40 31.0286 40 20C40 8.97143 31.0286 0 20 0ZM19.8429 10.3286L27.8286 16.9857L26.5 18.5571L18.5143 11.9L19.8429 10.3286ZM16.7143 14.6429L26.1143 19.0286L25.2571 20.9143L15.8571 16.5286L16.7143 14.6429ZM14.8143 19.5143L25.2 21.5143L25.0714 23.3714L14.4571 21.8429L14.8286 19.5143H14.8143ZM14.1286 24.1143H25.0857V26.4571H14.1286V24.1143ZM29 30.3714H10.2143V21.7571H12.5571V28.0143H26.6571V21.7571H29V30.3714ZM28.1429 16.6L21.9571 8.3L23.6 7.04286L29.7857 15.3429L28.1429 16.6Z" fill="#F2F2F2"/>
</g>
<defs>
<clipPath id="clip0_1294_1860">
<rect width="40" height="40" fill="white"/>
</clipPath>
</defs>
</svg>
