<svg width="17" height="18" viewBox="0 0 17 18" fill="none" xmlns="http://www.w3.org/2000/svg">
<path id="Star bullet point" fill-rule="evenodd" clip-rule="evenodd" d="M7.66824 0.569559C7.90731 0.388204 8.19915 0.290039 8.49923 0.290039C8.79931 0.290039 9.09115 0.388204 9.33022 0.569559C9.5693 0.750912 9.74248 1.0055 9.82336 1.29447L9.82872 1.31443L11.0144 5.91543C11.0367 6.00195 11.0818 6.0809 11.145 6.14408C11.2081 6.2072 11.287 6.25227 11.3734 6.27461C11.3733 6.27459 11.3735 6.27464 11.3734 6.27461L15.9747 7.46036L15.991 7.46473C16.2811 7.54475 16.537 7.71775 16.7193 7.95719C16.9017 8.19662 17.0004 8.48927 17.0004 8.79023C17.0004 9.09118 16.9017 9.38383 16.7193 9.62326C16.537 9.8627 16.2811 10.0357 15.991 10.1157L15.9747 10.1201L11.3737 11.3058C11.2871 11.3281 11.2082 11.3732 11.145 11.4364C11.0818 11.4995 11.0367 11.5785 11.0144 11.665L9.82793 16.2662L9.82261 16.286C9.74174 16.575 9.56855 16.8295 9.32947 17.0109C9.0904 17.1922 8.79856 17.2904 8.49848 17.2904C8.1984 17.2904 7.90656 17.1922 7.66749 17.0109C7.42842 16.8295 7.25523 16.575 7.17436 16.286L7.16899 16.266L5.98331 11.665C5.96099 11.5785 5.91589 11.4995 5.85271 11.4364C5.78953 11.3732 5.71058 11.3281 5.62406 11.3058L1.02291 10.1193L0.999557 10.113C0.711719 10.0313 0.458383 9.85792 0.277991 9.6192C0.0975997 9.38048 0 9.08944 0 8.79023C0 8.49102 0.0975997 8.19997 0.277991 7.96125C0.458383 7.72253 0.711719 7.54917 0.999557 7.46748L1.02276 7.46119L5.62401 6.27394C5.7105 6.25164 5.78962 6.20654 5.8528 6.1434C5.91592 6.08033 5.961 6.00151 5.98338 5.91513C5.98336 5.91522 5.98341 5.91505 5.98338 5.91513L7.16978 1.31428L7.17511 1.29447C7.25598 1.0055 7.42916 0.750915 7.66824 0.569559ZM8.49904 4.16914L9.07774 6.41477C9.18934 6.84736 9.41489 7.24239 9.73079 7.5583C10.0467 7.8742 10.4415 8.09968 10.8741 8.21127L13.1207 8.79023L10.8743 9.36911C10.4417 9.48071 10.0467 9.70625 9.73079 10.0222C9.41489 10.3381 9.18941 10.7328 9.07781 11.1654L8.49867 13.4113L7.91997 11.1657C7.80837 10.7331 7.58283 10.3381 7.26693 10.0222C6.95103 9.70625 6.55624 9.48078 6.12365 9.36918L3.87773 8.79003L6.12352 8.21056C6.12345 8.21058 6.12358 8.21054 6.12352 8.21056C6.55588 8.09905 6.95067 7.87373 7.26652 7.55811C7.58241 7.24244 7.80797 6.84792 7.91977 6.41556L8.49904 4.16914Z" fill="#ECF0F3"/>
</svg>
