<svg width="29" height="29" viewBox="0 0 29 29" fill="none" xmlns="http://www.w3.org/2000/svg">
<g id="Group 144">
<path id="Vector (Stroke)" fill-rule="evenodd" clip-rule="evenodd" d="M1.17157 1.39353C1.92172 0.501268 2.93913 0 4 0H24C25.0609 0 26.0783 0.501268 26.8284 1.39353C27.5786 2.28579 28 3.49596 28 4.75781V9.51562C28 10.3915 27.403 11.1016 26.6667 11.1016C25.9303 11.1016 25.3333 10.3915 25.3333 9.51562V4.75781C25.3333 4.3372 25.1929 3.93381 24.9428 3.63639C24.6928 3.33896 24.3536 3.17188 24 3.17188H4C3.64638 3.17188 3.30724 3.33896 3.05719 3.63639C2.80714 3.93381 2.66667 4.3372 2.66667 4.75781V20.6172C2.66667 21.4858 3.26971 22.2031 4 22.2031H9.33333C10.0697 22.2031 10.6667 22.9132 10.6667 23.7891C10.6667 24.665 10.0697 25.375 9.33333 25.375H4C1.79695 25.375 0 23.2376 0 20.6172V4.75781C0 3.49596 0.421427 2.28579 1.17157 1.39353Z" fill="white"/>
<path id="Vector (Stroke)_2" fill-rule="evenodd" clip-rule="evenodd" d="M17 17.7222C16.2636 17.7222 15.6667 18.4435 15.6667 19.3333V24.1667C15.6667 25.0565 16.2636 25.7778 17 25.7778H25C25.7364 25.7778 26.3333 25.0565 26.3333 24.1667V19.3333C26.3333 18.4435 25.7364 17.7222 25 17.7222H17ZM13 19.3333C13 16.664 14.7909 14.5 17 14.5H25C27.2091 14.5 29 16.664 29 19.3333V24.1667C29 26.836 27.2091 29 25 29H17C14.7909 29 13 26.836 13 24.1667V19.3333Z" fill="white"/>
</g>
</svg>
