<svg width="18" height="17" viewBox="0 0 18 17" fill="none" xmlns="http://www.w3.org/2000/svg">
<g id="Group 6">
<path id="Vector (Stroke)" fill-rule="evenodd" clip-rule="evenodd" d="M7.74734 0.910269C8.12944 0.68762 8.56376 0.570312 9.006 0.570312C9.44823 0.570312 9.88255 0.68762 10.2647 0.910269C10.6462 1.13262 10.9621 1.45209 11.1801 1.83615C11.1804 1.83666 11.1807 1.83717 11.181 1.83768L17.177 12.3307C17.1774 12.3314 17.1778 12.332 17.1781 12.3327C17.3967 12.712 17.5118 13.1422 17.512 13.5801C17.5121 14.0187 17.3968 14.4497 17.1777 14.8296C16.9585 15.2096 16.6433 15.5252 16.2636 15.7448C15.8839 15.9644 15.4531 16.0803 15.0145 16.0807L3.01749 16.0807C2.57846 16.0838 2.14635 15.9712 1.76461 15.7542C1.38143 15.5364 1.06264 15.2212 0.840553 14.8405C0.618467 14.4598 0.500982 14.0271 0.500006 13.5863C0.499032 13.1464 0.614153 12.7141 0.833721 12.3329C0.834146 12.3322 0.83457 12.3314 0.834995 12.3307L6.831 1.83768C6.83134 1.83709 6.83168 1.83649 6.83201 1.83589C7.05002 1.45194 7.36584 1.13257 7.74734 0.910269ZM9.006 2.57031C8.91755 2.57031 8.83069 2.59377 8.75427 2.6383C8.67785 2.68283 8.6146 2.74684 8.571 2.82379L8.56925 2.82688L2.56701 13.3308C2.52293 13.4071 2.49981 13.4938 2.5 13.5819C2.5002 13.6701 2.52369 13.7566 2.56811 13.8327C2.61253 13.9089 2.67628 13.9719 2.75292 14.0155C2.82956 14.059 2.91635 14.0816 3.0045 14.0808L3.0135 14.0807L15.0125 14.0807C15.0123 14.0807 15.0127 14.0807 15.0125 14.0807C15.1 14.0805 15.1865 14.0574 15.2623 14.0136C15.3382 13.9696 15.4013 13.9065 15.4451 13.8305C15.4889 13.7545 15.512 13.6683 15.512 13.5806C15.5119 13.4929 15.4888 13.4067 15.445 13.3307L15.4427 13.3269L9.44099 2.82379C9.39738 2.74684 9.33415 2.68283 9.25773 2.6383C9.18131 2.59377 9.09444 2.57031 9.006 2.57031Z" fill="white"/>
<path id="Vector (Stroke)_2" fill-rule="evenodd" clip-rule="evenodd" d="M9.01562 5.07812C9.56791 5.07812 10.0156 5.52584 10.0156 6.07812V9.07812C10.0156 9.63041 9.56791 10.0781 9.01562 10.0781C8.46334 10.0781 8.01562 9.63041 8.01562 9.07812V6.07812C8.01562 5.52584 8.46334 5.07812 9.01562 5.07812Z" fill="white"/>
<path id="Vector (Stroke)_3" fill-rule="evenodd" clip-rule="evenodd" d="M8.01562 12.0781C8.01562 11.5258 8.46334 11.0781 9.01562 11.0781H9.02313C9.57541 11.0781 10.0231 11.5258 10.0231 12.0781C10.0231 12.6304 9.57541 13.0781 9.02313 13.0781H9.01562C8.46334 13.0781 8.01562 12.6304 8.01562 12.0781Z" fill="white"/>
</g>
</svg>
