<svg width="40" height="41" viewBox="0 0 40 41" fill="none" xmlns="http://www.w3.org/2000/svg">
<g id="whatsapp-svgrepo-com 1" clip-path="url(#clip0_1464_4443)">
<path id="Vector" d="M30.2583 15.9359C29.1478 13.3034 27.0948 11.2504 24.5328 10.1664L24.4623 10.1394C23.2188 9.59194 21.7683 9.27344 20.2438 9.27344C18.7193 9.27344 17.2693 9.59194 15.9563 10.1664L16.0258 10.1394C13.3933 11.2499 11.3403 13.3029 10.2563 15.8649L10.2293 15.9354C9.68178 17.1834 9.36328 18.6384 9.36328 20.1669C9.36328 22.5594 10.1433 24.7709 11.4628 26.5584L11.4418 26.5294L10.0728 30.5669L14.2653 29.2329C15.9303 30.3614 17.9828 31.0344 20.1933 31.0344H20.2683C21.7848 31.0344 23.2263 30.7159 24.5303 30.1414L24.4623 30.1684C27.0948 29.0579 29.1478 27.0049 30.2318 24.4429L30.2588 24.3724C30.8063 23.1289 31.1248 21.6784 31.1248 20.1539C31.1248 18.6294 30.8063 17.1794 30.2318 15.8664L30.2588 15.9359H30.2583ZM27.0358 23.7974V23.7964C27.0188 24.2759 26.9128 24.7259 26.7328 25.1364L26.7418 25.1129C26.4838 25.6304 26.0533 26.0294 25.5273 26.2414L25.5118 26.2469C24.9988 26.5184 24.3933 26.6859 23.7508 26.7064H23.7443C22.5263 26.5449 21.4248 26.1719 20.4328 25.6239C19.2998 25.1019 18.3308 24.4184 17.5078 23.5899L17.5068 23.5889C16.5858 22.6314 15.7423 21.5829 14.9948 20.4669L14.9423 20.3844C14.2318 19.4579 13.7793 18.2994 13.7133 17.0379L13.7123 17.0234V16.8849C13.7483 15.7954 14.2353 14.8254 14.9908 14.1504L14.9943 14.1469C15.2258 13.9169 15.5428 13.7724 15.8938 13.7659H15.8948C16.0078 13.7694 16.1158 13.7784 16.2213 13.7939L16.2068 13.7919C16.3038 13.8064 16.4168 13.8154 16.5333 13.8174H16.5368C16.5578 13.8154 16.5813 13.8139 16.6063 13.8139C16.7518 13.8139 16.8868 13.8574 16.9998 13.9314L16.9978 13.9304C17.1173 14.0624 17.2088 14.2219 17.2638 14.3974L17.2658 14.4064C17.3583 14.6374 17.5488 15.1454 17.8378 15.9304C17.9888 16.2814 18.1363 16.7139 18.2548 17.1584L18.2703 17.2289C18.1853 17.6324 17.9708 17.9754 17.6748 18.2224L17.6713 18.2244C17.2728 18.6459 17.0733 18.9144 17.0733 19.0289C17.0778 19.1274 17.1113 19.2164 17.1638 19.2904L17.1628 19.2894C17.6153 20.2159 18.2088 21.0024 18.9238 21.6574L18.9293 21.6629C19.6838 22.3434 20.5453 22.9279 21.4793 23.3839L21.5453 23.4129C21.6538 23.4834 21.7833 23.5279 21.9243 23.5349H21.9263C22.0998 23.5349 22.4118 23.2549 22.8628 22.6944C23.3133 22.1344 23.6128 21.8539 23.7613 21.8539L23.7623 21.8549C24.3953 22.0574 24.9438 22.3099 25.4548 22.6184C26.0448 22.8809 26.5548 23.1874 27.0198 23.5479L27.0028 23.5354C27.0253 23.6034 27.0388 23.6809 27.0388 23.7624C27.0388 23.7749 27.0388 23.7859 27.0378 23.7984L27.0358 23.7974Z" fill="#F2F2F2"/>
<path id="Vector_2" d="M20 0.5C8.9545 0.5 0 9.4545 0 20.5C0 31.5455 8.9545 40.5 20 40.5C31.0455 40.5 40 31.5455 40 20.5C40 9.4545 31.0455 0.5 20 0.5ZM32.234 25.304L32.2665 25.2215C30.929 28.378 28.467 30.84 25.3955 32.145L25.3105 32.1775C23.8275 32.8345 22.098 33.2165 20.2785 33.2165H20.1835C17.908 33.2165 15.77 32.625 13.916 31.588L6.694 33.9095L9.0505 26.893C7.876 24.9775 7.18 22.659 7.18 20.177C7.18 18.3375 7.562 16.588 8.2515 15.002L8.219 15.086C9.5565 11.929 12.0185 9.4675 15.09 8.1625L15.175 8.13C16.658 7.473 18.3875 7.091 20.207 7.091H20.243H20.28C22.099 7.091 23.829 7.473 25.3925 8.1625L25.311 8.13C28.468 9.4675 30.9295 11.9295 32.2345 15.001L32.267 15.086C32.924 16.58 33.306 18.322 33.306 20.1535C33.306 21.985 32.924 23.727 32.2345 25.304H32.234Z" fill="#F2F2F2"/>
</g>
<defs>
<clipPath id="clip0_1464_4443">
<rect width="40" height="40" fill="white" transform="translate(0 0.5)"/>
</clipPath>
</defs>
</svg>
