<svg width="40" height="40" viewBox="0 0 40 40" fill="none" xmlns="http://www.w3.org/2000/svg">
<g id="X_logo_2023_original 1" clip-path="url(#clip0_1294_1866)">
<path id="Vector" d="M10.916 9.59375L25.8298 30.4846H29.0695L14.1557 9.59375H10.916Z" fill="#F2F2F2"/>
<path id="Vector_2" d="M20.0007 0C8.95457 0 0 8.95457 0 20.0007C0 31.0468 8.95457 40.0014 20.0007 40.0014C31.0468 40.0014 40.0014 31.0468 40.0014 20.0007C40.0014 8.95457 31.0468 0 20.0007 0ZM24.835 31.9656L18.316 22.6738L10.1546 31.9656H8.04533L17.3808 21.34L8.04533 8.03577H15.165L21.3372 16.8333L29.0699 8.03577H31.1792L22.2765 18.1699L31.9547 31.9656H24.835Z" fill="#F2F2F2"/>
</g>
<defs>
<clipPath id="clip0_1294_1866">
<rect width="40" height="40" fill="white"/>
</clipPath>
</defs>
</svg>
